G04 start of page 2 for group 0 idx 0 *
G04 Title: (unknown), top *
G04 Creator: pcb 20140316 *
G04 CreationDate: Tue 28 Aug 2018 04:48:26 PM GMT UTC *
G04 For: cwispell *
G04 Format: Gerber/RS-274X *
G04 PCB-Dimensions (mil): 4685.04 2913.39 *
G04 PCB-Coordinate-Origin: lower left *
%MOIN*%
%FSLAX25Y25*%
%LNTOP*%
%ADD31C,0.1300*%
%ADD30C,0.0591*%
%ADD29C,0.0669*%
%ADD28C,0.0380*%
%ADD27C,0.0787*%
%ADD26C,0.0200*%
%ADD25C,0.0350*%
%ADD24C,0.1181*%
%ADD23C,0.0360*%
%ADD22R,0.1181X0.1181*%
%ADD21R,0.0512X0.0512*%
%ADD20C,0.0500*%
%ADD19C,0.1600*%
%ADD18C,0.0900*%
%ADD17C,0.0600*%
%ADD16C,0.0631*%
%ADD15C,0.0709*%
%ADD14C,0.0001*%
%ADD13C,0.0250*%
%ADD12C,0.0400*%
%ADD11C,0.0100*%
G54D11*X30709Y186142D02*Y195866D01*
X40748Y186102D02*Y193701D01*
X45748Y198701D01*
Y193583D02*Y191102D01*
X35748Y195984D02*Y191102D01*
X30709Y195866D02*X35748Y200906D01*
Y204724D01*
X40551Y200787D02*X35748Y195984D01*
X30512Y199213D02*X25748Y194449D01*
X35748Y181102D02*X30709Y186142D01*
X45748Y181102D02*X40748Y186102D01*
X55748Y181102D02*X50787Y186063D01*
X45748Y198701D02*Y204724D01*
X50787Y199764D02*X55748Y204724D01*
X50591Y202953D02*X48228Y200591D01*
Y196063D01*
X60827Y198819D02*X55748Y193740D01*
X50787Y186063D02*Y199764D01*
X60433Y186417D02*Y193701D01*
X55748Y193740D02*Y191102D01*
X48228Y196063D02*X45748Y193583D01*
G54D12*X55118Y228346D02*X36417Y247047D01*
X23622D01*
G54D13*X62669Y236220D02*X79724D01*
G54D11*X65748Y181102D02*X60433Y186417D01*
X85748Y181102D02*X80906Y185945D01*
X95748Y181102D02*X90748Y186102D01*
X75748Y181102D02*X70866Y185984D01*
Y193504D01*
X80906Y185945D02*Y193307D01*
X90748Y186102D02*Y194094D01*
X85748Y192638D02*Y191102D01*
X70866Y193504D02*X75748Y198386D01*
Y204724D01*
X80709Y199409D02*X75748Y194449D01*
X95748Y192992D02*Y191102D01*
X90748Y197638D02*X85748Y192638D01*
X80906Y193307D02*X85748Y198150D01*
Y204724D01*
X90748Y194094D02*X95748Y199094D01*
Y204724D01*
X75748Y194449D02*Y191102D01*
X25748Y181102D02*X20669Y186181D01*
Y193110D01*
X25748Y194449D02*Y191102D01*
X10827Y195079D02*X15748Y200000D01*
Y204724D01*
X20669Y193110D02*X25748Y198189D01*
Y204724D01*
X20866Y198819D02*X15748Y193701D01*
Y181102D02*X10827Y186024D01*
Y195079D01*
X15748Y193701D02*Y191102D01*
G54D13*Y181102D02*X8858Y187992D01*
Y194882D01*
X15748Y201772D01*
G54D11*X12795Y161417D02*Y148622D01*
X5906Y22638D02*X20669D01*
X12795Y29528D02*Y14764D01*
G54D12*X81693Y283465D02*X255906D01*
X248031Y275591D02*X102362D01*
G54D13*X150000Y247637D02*Y240157D01*
X159606Y248031D02*X157086Y245511D01*
X150000Y247637D02*X148622Y249016D01*
Y261811D01*
X150591Y263780D01*
X165354D01*
G54D11*X172047Y270472D02*X174016D01*
G54D13*X165354Y263780D02*X172047Y270472D01*
G54D11*X132047Y248031D02*X109606Y270472D01*
X107087D01*
G54D13*X109055D01*
X131496Y248031D01*
G54D11*X232283Y262795D02*X239961Y270472D01*
X240945D01*
G54D13*Y257087D02*X241142Y256890D01*
G54D12*X102362Y275591D02*X94488Y267717D01*
Y240157D01*
X82677Y228346D01*
G54D13*X122047Y232676D02*X122835Y233465D01*
Y240157D01*
X122047Y240946D01*
Y248031D01*
X132047D02*X129921Y245906D01*
Y240157D01*
X157086Y245511D02*Y232283D01*
X150000Y232676D02*X149607Y232283D01*
X129527D01*
X90551Y221457D02*X101378Y232283D01*
Y248031D01*
X132047D02*X149606D01*
X131496D02*X131890D01*
X228346Y225394D02*X136811D01*
X129921Y232283D01*
X224804Y238582D02*Y231299D01*
X200787Y246063D02*X212598D01*
G54D11*X234409Y247047D02*X232283Y249173D01*
Y262795D01*
X100591Y186260D02*Y194094D01*
X105748Y199252D01*
Y204724D01*
X110630Y198228D02*X105748Y193346D01*
Y191102D01*
X110630Y186220D02*Y193701D01*
X115748Y198819D01*
Y204724D01*
X120669Y186181D02*Y193701D01*
Y197638D02*X115748Y192717D01*
Y191102D01*
X120669Y193701D02*X125748Y198780D01*
X130709Y198425D02*X125748Y193465D01*
Y191102D01*
X105748Y181102D02*X100591Y186260D01*
X115748Y181102D02*X110630Y186220D01*
X125748Y181102D02*X120669Y186181D01*
X145748Y181102D02*X140748Y186102D01*
X145748Y193780D02*Y191102D01*
X140748Y198425D02*X135748Y193425D01*
Y191102D01*
X125748Y198780D02*Y204724D01*
X130709Y209764D02*Y198425D01*
X120669Y209803D02*Y197638D01*
X135748Y181102D02*X130512Y186339D01*
Y193898D01*
X140748Y186102D02*Y193307D01*
X130512Y193898D02*X135748Y199134D01*
Y204724D01*
X140748Y193307D02*X145748Y198307D01*
Y204724D01*
X135748Y214724D02*X140748Y209724D01*
Y198425D01*
X125748Y214724D02*X130709Y209764D01*
X115748Y214724D02*X120669Y209803D01*
X105748Y214724D02*X110630Y209843D01*
X95748Y214724D02*X100787Y209685D01*
X85748Y214724D02*X90748Y209724D01*
X110630Y209843D02*Y198228D01*
X100787Y209685D02*Y198031D01*
X95748Y192992D01*
X90748Y209724D02*Y197638D01*
X75748Y214724D02*X80709Y209764D01*
Y199409D01*
X65748Y214724D02*X70866Y209606D01*
X55748Y214724D02*X60827Y209646D01*
X45748Y214724D02*X50591Y209882D01*
X35748Y214724D02*X40551Y209921D01*
X25748Y214724D02*X30512Y209961D01*
X15748Y214724D02*X20866Y209606D01*
X70866D02*Y199016D01*
X60827Y209646D02*Y198819D01*
X50591Y209882D02*Y202953D01*
X40551Y209921D02*Y200787D01*
X30512Y209961D02*Y199213D01*
X20866Y209606D02*Y198819D01*
X155748Y181102D02*X150591Y186260D01*
X165748Y181102D02*X160827Y186024D01*
X175748Y181102D02*X170866Y185984D01*
X195748Y181102D02*X190748Y186102D01*
X195748Y195157D02*Y191102D01*
X190748Y199409D02*X185748Y194409D01*
X180709Y199606D02*X175748Y194646D01*
Y191102D01*
X185748Y194409D02*Y191102D01*
X158465Y198622D02*Y197638D01*
X155748Y194921D01*
Y191102D01*
X170866Y193898D02*X175748Y198780D01*
X150787Y198819D02*X145748Y193780D01*
X175748Y198780D02*Y204724D01*
X180709Y209764D02*Y199606D01*
X170866Y209606D02*Y200394D01*
X160827Y209646D02*Y200984D01*
X150787Y209685D02*Y198819D01*
X185748Y181102D02*X180709Y186142D01*
Y195079D01*
X190748Y186102D02*Y193701D01*
X180709Y195079D02*X185748Y200118D01*
Y204724D01*
X190748Y193701D02*X195748Y198701D01*
Y204724D01*
X185748Y214724D02*X190748Y209724D01*
X175748Y214724D02*X180709Y209764D01*
X165748Y214724D02*X170866Y209606D01*
X155748Y214724D02*X160827Y209646D01*
X145748Y214724D02*X150787Y209685D01*
X190748Y209724D02*Y199409D01*
X205748Y181102D02*X200394Y186457D01*
G54D13*X205748Y181102D02*X216535Y191890D01*
G54D11*X200394Y186457D02*Y194685D01*
X205748Y200039D01*
Y204724D01*
Y191102D02*X210433Y195787D01*
Y208268D01*
X205748Y212953D01*
Y214724D01*
X195748D02*X200394Y210079D01*
Y199803D01*
X195748Y195157D01*
X150591Y186260D02*Y193898D01*
X155748Y199055D01*
Y204724D01*
X160827Y186024D02*Y195669D01*
X170866Y185984D02*Y193898D01*
X165748Y195276D02*Y191102D01*
X160827Y195669D02*X165748Y200591D01*
Y204724D01*
X170866Y200394D02*X165748Y195276D01*
X160827Y200984D02*X158465Y198622D01*
X60433Y193701D02*X65748Y199016D01*
Y204724D01*
X70866Y199016D02*X65748Y193898D01*
Y191102D01*
G54D12*X70866Y272638D02*X81693Y283465D01*
X82677Y228346D02*X55118D01*
G54D13*X15748Y201772D02*Y204724D01*
X8701Y224252D02*X5906D01*
X15748Y204724D02*X5906Y214567D01*
Y224252D01*
Y247047D02*X13780Y239173D01*
Y229331D01*
X8701Y224252D01*
X5906Y247047D02*X8858Y250000D01*
X9843D01*
X19685Y259843D01*
X39047D01*
X62669Y236220D01*
X311024Y239173D02*Y232283D01*
G54D12*X287402Y251969D02*Y236220D01*
G54D13*X311024Y250394D02*X287402Y274016D01*
G54D12*Y236220D02*X299213Y224409D01*
X322835D01*
X279528Y220472D02*Y244094D01*
G54D13*X311024Y243016D02*Y232283D01*
G54D12*X322835Y224409D02*X331969Y215276D01*
Y211496D01*
X376142Y228346D02*X346457D01*
X331969Y213858D01*
Y212598D01*
X377953Y216535D02*Y198976D01*
Y188976D02*X374016Y185039D01*
X377953Y226535D02*X376142Y228346D01*
X374016Y185039D02*X314961D01*
X354331Y200630D02*X352520Y198819D01*
X316929D01*
X314961Y185039D02*X279528Y220472D01*
X311969Y211496D02*Y203780D01*
X316929Y198819D01*
G54D13*X216535Y191890D02*Y197835D01*
X229331Y210630D01*
Y214567D01*
X257284Y228739D02*X235828D01*
X232283Y229331D02*X228346Y225394D01*
G54D12*X255906Y283465D02*X287402Y251969D01*
G54D13*Y274016D02*Y279528D01*
G54D12*X279528Y244094D02*X248031Y275591D01*
G54D13*X241142Y256890D02*X258858D01*
X225198Y240157D02*X224409Y240946D01*
Y248031D01*
X232283Y240550D02*X234409Y242676D01*
Y248031D01*
X238346Y244094D01*
X255906D01*
X256694Y236613D02*X255906Y237402D01*
X235828Y228739D02*X232283Y232283D01*
Y231891D02*Y229331D01*
X255906Y237402D02*Y244094D01*
X263385Y228739D02*X263780Y229133D01*
Y236220D01*
X265906Y238346D01*
Y244094D01*
X335946Y270939D02*X339946Y266939D01*
Y263939D01*
X347946D01*
X343946Y267939D02*Y270939D01*
X347946Y263939D02*X343946Y267939D01*
X351946Y270939D02*X355946Y266939D01*
Y263939D01*
X330709Y238701D01*
X331946Y263939D02*X311024Y243016D01*
X330709Y238701D02*Y232283D01*
X327946Y270939D02*X331946Y266939D01*
Y263939D01*
G54D14*G36*
X146606Y251031D02*Y245031D01*
X152606D01*
Y251031D01*
X146606D01*
G37*
G54D15*X51181Y255906D03*
G54D16*Y273622D03*
G54D14*G36*
X129047Y251031D02*Y245031D01*
X135047D01*
Y251031D01*
X129047D01*
G37*
G54D17*X122047Y248031D03*
X159606D03*
G54D14*G36*
X2906Y260047D02*Y254047D01*
X8906D01*
Y260047D01*
X2906D01*
G37*
G54D17*X5906Y247047D03*
G54D14*G36*
X197787Y249063D02*Y243063D01*
X203787D01*
Y249063D01*
X197787D01*
G37*
G36*
X209598D02*Y243063D01*
X215598D01*
Y249063D01*
X209598D01*
G37*
G36*
X12748Y207724D02*Y201724D01*
X18748D01*
Y207724D01*
X12748D01*
G37*
G54D17*X25748Y204724D03*
X35748D03*
X15748Y214724D03*
X25748D03*
X35748D03*
X45748D03*
X55748D03*
X65748D03*
G54D14*G36*
X12748Y184102D02*Y178102D01*
X18748D01*
Y184102D01*
X12748D01*
G37*
G54D17*X15748Y191102D03*
X25748D03*
X35748D03*
G54D14*G36*
X2906Y237252D02*Y231252D01*
X8906D01*
Y237252D01*
X2906D01*
G37*
G54D17*X5906Y224252D03*
X75748Y214724D03*
X85748D03*
X95748D03*
X75748Y204724D03*
X85748D03*
X95748D03*
X105748Y214724D03*
X115748D03*
X125748D03*
X105748Y204724D03*
X115748D03*
X125748D03*
X135748D03*
Y214724D03*
X145748D03*
X155748D03*
X145748Y204724D03*
X155748D03*
X165748D03*
X175748D03*
X185748D03*
X195748D03*
X165748Y214724D03*
X175748D03*
X185748D03*
X195748D03*
X205748Y204724D03*
Y214724D03*
X200787Y236063D03*
X212598D03*
X45748Y204724D03*
X55748D03*
X65748D03*
X25748Y181102D03*
X35748D03*
X45748D03*
X55748D03*
X65748D03*
X75748D03*
X45748Y191102D03*
X55748D03*
X65748D03*
X75748D03*
X85748Y181102D03*
Y191102D03*
X95748D03*
X105748D03*
X95748Y181102D03*
X105748D03*
X115748D03*
X125748D03*
X135748D03*
X145748D03*
X115748Y191102D03*
X125748D03*
X135748D03*
X145748D03*
X155748Y181102D03*
X165748D03*
X175748D03*
X185748D03*
X195748D03*
X205748D03*
X155748Y191102D03*
X165748D03*
X175748D03*
X185748D03*
X195748D03*
X205748D03*
G54D14*G36*
X351331Y203630D02*Y197630D01*
X357331D01*
Y203630D01*
X351331D01*
G37*
G54D17*X354331Y210630D03*
G54D14*G36*
X374953Y191976D02*Y185976D01*
X380953D01*
Y191976D01*
X374953D01*
G37*
G54D17*X377953Y198976D03*
G54D14*G36*
X374953Y219535D02*Y213535D01*
X380953D01*
Y219535D01*
X374953D01*
G37*
G54D17*X377953Y226535D03*
G54D14*G36*
X327709Y235283D02*Y229283D01*
X333709D01*
Y235283D01*
X327709D01*
G37*
G36*
X327469Y215996D02*Y206996D01*
X336469D01*
Y215996D01*
X327469D01*
G37*
G54D18*X321969Y211496D03*
X311969D03*
G54D17*X225118Y196220D03*
X286142D03*
G54D14*G36*
X252906Y247094D02*Y241094D01*
X258906D01*
Y247094D01*
X252906D01*
G37*
G54D17*X265906Y244094D03*
G54D14*G36*
X231409Y250047D02*Y244047D01*
X237409D01*
Y250047D01*
X231409D01*
G37*
G54D17*X224409Y247047D03*
G54D14*G36*
X284402Y282528D02*Y276528D01*
X290402D01*
Y282528D01*
X284402D01*
G37*
G36*
X308024Y235283D02*Y229283D01*
X314024D01*
Y235283D01*
X308024D01*
G37*
G36*
X449756Y237094D02*Y231094D01*
X455756D01*
Y237094D01*
X449756D01*
G37*
G54D17*X452756Y244094D03*
G54D14*G36*
X406449Y237252D02*Y231252D01*
X412449D01*
Y237252D01*
X406449D01*
G37*
G54D17*X409449Y244252D03*
G54D19*X366946Y280939D03*
X316946D03*
G54D20*X351946Y270939D03*
X355946Y263939D03*
X347946D03*
X343946Y270939D03*
X335946D03*
G54D14*G36*
X325446Y273439D02*Y268439D01*
X330446D01*
Y273439D01*
X325446D01*
G37*
G54D20*X339946Y263939D03*
X331946D03*
G54D14*G36*
X420228Y48118D02*Y42118D01*
X426228D01*
Y48118D01*
X420228D01*
G37*
G54D17*X423228Y55118D03*
G54D14*G36*
X376921Y48276D02*Y42276D01*
X382921D01*
Y48276D01*
X376921D01*
G37*
G54D17*X379921Y55276D03*
G54D14*G36*
X418417Y162449D02*Y156449D01*
X424417D01*
Y162449D01*
X418417D01*
G37*
G54D17*X411417Y159449D03*
G54D14*G36*
X418260Y119142D02*Y113142D01*
X424260D01*
Y119142D01*
X418260D01*
G37*
G54D17*X411260Y116142D03*
G54D21*X224803Y238582D02*Y237796D01*
X231889Y238582D02*Y237796D01*
X224803Y231692D02*Y230906D01*
X231889Y231692D02*Y230906D01*
X264370Y236613D02*Y235827D01*
X257284Y236613D02*Y235827D01*
X264370Y228739D02*Y227953D01*
X257284Y228739D02*Y227953D01*
X157086Y240550D02*Y239764D01*
X150000Y240550D02*Y239764D01*
X122441Y240550D02*Y239764D01*
X129527Y240550D02*Y239764D01*
X157086Y232676D02*Y231890D01*
X150000Y232676D02*Y231890D01*
X122441Y232676D02*Y231890D01*
X129527Y232676D02*Y231890D01*
G54D14*G36*
X21654Y279528D02*Y267717D01*
X33465D01*
Y279528D01*
X21654D01*
G37*
G36*
Y253937D02*Y242126D01*
X33465D01*
Y253937D01*
X21654D01*
G37*
G54D22*X74803Y273622D02*Y248031D01*
G54D17*X27559Y273622D03*
G54D23*X107087Y270472D03*
G54D24*X322835Y42323D03*
Y128937D03*
G54D17*X12795D03*
Y42323D03*
G54D24*X39370Y128937D03*
Y42323D03*
G54D23*X174016Y270472D03*
X240945D03*
X311024Y263780D03*
Y250394D03*
X293307D03*
X240945Y257087D03*
X258858Y256890D03*
X90551Y221457D03*
G54D17*X229331Y214567D03*
G54D23*X101378Y248031D03*
X156299Y257087D03*
G54D17*X79724Y236220D03*
X109252D03*
G54D23*X129527Y232283D03*
X218504Y239173D03*
X231889Y238189D03*
G54D24*G54D25*G54D26*G54D27*G54D25*G54D27*G54D24*G54D26*G54D25*G54D26*G54D25*G54D26*G54D24*G54D28*G54D29*G54D30*G54D28*G54D17*G54D25*G54D28*G54D31*G54D25*G54D28*M02*
