G04 start of page 13 for group -4062 idx -4062 *
G04 Title: (unknown), soldermask *
G04 Creator: pcb 20140316 *
G04 CreationDate: Tue 28 Aug 2018 04:48:26 PM GMT UTC *
G04 For: cwispell *
G04 Format: Gerber/RS-274X *
G04 PCB-Dimensions (mil): 4685.04 2913.39 *
G04 PCB-Coordinate-Origin: lower left *
%MOIN*%
%FSLAX25Y25*%
%LNBOTTOMMASK*%
%ADD166R,0.0867X0.0867*%
%ADD165R,0.0651X0.0651*%
%ADD164C,0.0847*%
%ADD163C,0.1241*%
%ADD162C,0.0560*%
%ADD161C,0.1660*%
%ADD160C,0.0960*%
%ADD159C,0.0660*%
%ADD158C,0.0651*%
%ADD157C,0.0729*%
%ADD156C,0.0001*%
G54D156*G36*
X146306Y251331D02*Y244731D01*
X152906D01*
Y251331D01*
X146306D01*
G37*
G54D157*X51181Y255906D03*
G54D158*Y273622D03*
G54D156*G36*
X128747Y251331D02*Y244731D01*
X135347D01*
Y251331D01*
X128747D01*
G37*
G54D159*X122047Y248031D03*
X159606D03*
G54D156*G36*
X2606Y260347D02*Y253747D01*
X9206D01*
Y260347D01*
X2606D01*
G37*
G54D159*X5906Y247047D03*
G54D156*G36*
X197487Y249363D02*Y242763D01*
X204087D01*
Y249363D01*
X197487D01*
G37*
G36*
X209298D02*Y242763D01*
X215898D01*
Y249363D01*
X209298D01*
G37*
G36*
X12448Y208024D02*Y201424D01*
X19048D01*
Y208024D01*
X12448D01*
G37*
G54D159*X25748Y204724D03*
X35748D03*
X15748Y214724D03*
X25748D03*
X35748D03*
X45748D03*
X55748D03*
X65748D03*
G54D156*G36*
X12448Y184402D02*Y177802D01*
X19048D01*
Y184402D01*
X12448D01*
G37*
G54D159*X15748Y191102D03*
X25748D03*
X35748D03*
G54D156*G36*
X2606Y237552D02*Y230952D01*
X9206D01*
Y237552D01*
X2606D01*
G37*
G54D159*X5906Y224252D03*
X75748Y214724D03*
X85748D03*
X95748D03*
X75748Y204724D03*
X85748D03*
X95748D03*
X105748Y214724D03*
X115748D03*
X125748D03*
X105748Y204724D03*
X115748D03*
X125748D03*
X135748D03*
Y214724D03*
X145748D03*
X155748D03*
X145748Y204724D03*
X155748D03*
X165748D03*
X175748D03*
X185748D03*
X195748D03*
X165748Y214724D03*
X175748D03*
X185748D03*
X195748D03*
X205748Y204724D03*
Y214724D03*
X200787Y236063D03*
X212598D03*
X45748Y204724D03*
X55748D03*
X65748D03*
X25748Y181102D03*
X35748D03*
X45748D03*
X55748D03*
X65748D03*
X75748D03*
X45748Y191102D03*
X55748D03*
X65748D03*
X75748D03*
X85748Y181102D03*
Y191102D03*
X95748D03*
X105748D03*
X95748Y181102D03*
X105748D03*
X115748D03*
X125748D03*
X135748D03*
X145748D03*
X115748Y191102D03*
X125748D03*
X135748D03*
X145748D03*
X155748Y181102D03*
X165748D03*
X175748D03*
X185748D03*
X195748D03*
X205748D03*
X155748Y191102D03*
X165748D03*
X175748D03*
X185748D03*
X195748D03*
X205748D03*
G54D156*G36*
X351031Y203930D02*Y197330D01*
X357631D01*
Y203930D01*
X351031D01*
G37*
G54D159*X354331Y210630D03*
G54D156*G36*
X374653Y192276D02*Y185676D01*
X381253D01*
Y192276D01*
X374653D01*
G37*
G54D159*X377953Y198976D03*
G54D156*G36*
X374653Y219835D02*Y213235D01*
X381253D01*
Y219835D01*
X374653D01*
G37*
G54D159*X377953Y226535D03*
G54D156*G36*
X327409Y235583D02*Y228983D01*
X334009D01*
Y235583D01*
X327409D01*
G37*
G36*
X327169Y216296D02*Y206696D01*
X336769D01*
Y216296D01*
X327169D01*
G37*
G54D160*X321969Y211496D03*
X311969D03*
G54D159*X225118Y196220D03*
X286142D03*
G54D156*G36*
X252606Y247394D02*Y240794D01*
X259206D01*
Y247394D01*
X252606D01*
G37*
G54D159*X265906Y244094D03*
G54D156*G36*
X231109Y250347D02*Y243747D01*
X237709D01*
Y250347D01*
X231109D01*
G37*
G54D159*X224409Y247047D03*
G54D156*G36*
X284102Y282828D02*Y276228D01*
X290702D01*
Y282828D01*
X284102D01*
G37*
G36*
X307724Y235583D02*Y228983D01*
X314324D01*
Y235583D01*
X307724D01*
G37*
G36*
X449456Y237394D02*Y230794D01*
X456056D01*
Y237394D01*
X449456D01*
G37*
G54D159*X452756Y244094D03*
G54D156*G36*
X406149Y237552D02*Y230952D01*
X412749D01*
Y237552D01*
X406149D01*
G37*
G54D159*X409449Y244252D03*
G54D161*X366946Y280939D03*
X316946D03*
G54D162*X351946Y270939D03*
X355946Y263939D03*
X347946D03*
X343946Y270939D03*
X335946D03*
G54D156*G36*
X325146Y273739D02*Y268139D01*
X330746D01*
Y273739D01*
X325146D01*
G37*
G54D162*X339946Y263939D03*
X331946D03*
G54D156*G36*
X419928Y48418D02*Y41818D01*
X426528D01*
Y48418D01*
X419928D01*
G37*
G54D159*X423228Y55118D03*
G54D156*G36*
X376621Y48576D02*Y41976D01*
X383221D01*
Y48576D01*
X376621D01*
G37*
G54D159*X379921Y55276D03*
G54D156*G36*
X418117Y162749D02*Y156149D01*
X424717D01*
Y162749D01*
X418117D01*
G37*
G54D159*X411417Y159449D03*
G54D156*G36*
X417960Y119442D02*Y112842D01*
X424560D01*
Y119442D01*
X417960D01*
G37*
G54D159*X411260Y116142D03*
G54D163*X11811Y271654D03*
G54D164*X348425Y84646D03*
X12795D03*
G54D163*X401575Y51181D03*
X415354Y137795D03*
X381890Y271654D03*
X431102Y240157D03*
G54D165*X291338Y250394D02*X295275D01*
X309055D02*X312992D01*
X291338Y263780D02*X295275D01*
X309055D02*X312992D01*
X221260Y257087D02*X225197D01*
X238977D02*X242914D01*
X154331D02*X158268D01*
X154331Y270472D02*X158268D01*
X172048Y257087D02*X175985D01*
X172048Y270472D02*X175985D01*
X87402Y257087D02*X91339D01*
X87402Y270472D02*X91339D01*
X105119Y257087D02*X109056D01*
X105119Y270472D02*X109056D01*
G54D166*X418307Y75788D02*X422244D01*
X380906D02*X384843D01*
X418307Y93504D02*X422244D01*
X380906D02*X384843D01*
X418307Y8859D02*X422244D01*
X380906D02*X384843D01*
X418307Y26575D02*X422244D01*
X380906D02*X384843D01*
G54D165*X221260Y270472D02*X225197D01*
X238977D02*X242914D01*
G54D166*X447834Y264764D02*X451771D01*
X410433D02*X414370D01*
X447834Y282480D02*X451771D01*
X410433D02*X414370D01*
X447834Y197835D02*X451771D01*
X410433D02*X414370D01*
X447834Y215551D02*X451771D01*
X410433D02*X414370D01*
X390748Y158464D02*Y154527D01*
Y121063D02*Y117126D01*
X373032Y158464D02*Y154527D01*
Y121063D02*Y117126D01*
X457677Y158464D02*Y154527D01*
Y121063D02*Y117126D01*
X439961Y158464D02*Y154527D01*
Y121063D02*Y117126D01*
M02*
