G04 start of page 14 for group -4079 idx -4079 *
G04 Title: (unknown), topsilk *
G04 Creator: pcb 20140316 *
G04 CreationDate: Tue 28 Aug 2018 04:48:26 PM GMT UTC *
G04 For: cwispell *
G04 Format: Gerber/RS-274X *
G04 PCB-Dimensions (mil): 4685.04 2913.39 *
G04 PCB-Coordinate-Origin: lower left *
%MOIN*%
%FSLAX25Y25*%
%LNTOPSILK*%
%ADD170C,0.0250*%
%ADD169C,0.0080*%
%ADD168C,0.0200*%
%ADD167C,0.0100*%
G54D167*X368110Y102362D02*Y0D01*
X435039Y102362D02*Y0D01*
X368110Y102362D02*X435039D01*
X364173Y171260D02*Y104331D01*
X368110Y0D02*X435039D01*
X393701Y173228D02*Y291339D01*
X397638D02*Y188976D01*
X464567D01*
Y291339D02*Y188976D01*
X397638Y291339D02*X464567D01*
X364173Y104331D02*X466535D01*
Y171260D02*Y104331D01*
X364173Y171260D02*X466535D01*
X0Y173228D02*X393701D01*
Y291339D02*X0D01*
Y169291D02*X362205D01*
X0Y291339D02*Y173228D01*
Y0D02*Y291339D01*
Y0D02*X362205D01*
X0Y169291D02*Y0D01*
X334646Y168307D02*Y984D01*
X25591Y168307D02*X334646D01*
X25591D02*Y984D01*
X468504Y0D02*X0D01*
X362205Y169291D02*Y0D01*
X25591Y84646D02*X334646D01*
X25591Y984D02*X334646D01*
X0Y291339D02*X468504D01*
Y0D01*
X359331Y215630D02*Y195630D01*
X349331Y215630D02*X359331D01*
X349331D02*Y195630D01*
X359331D01*
X349331Y205630D02*X359331D01*
X349331D02*Y195630D01*
G54D168*X301969Y199496D02*X341969D01*
X301969Y217496D02*Y199496D01*
Y217496D02*X341969D01*
Y199496D01*
X301969D02*X341969D01*
X301969Y205496D02*Y199496D01*
Y205496D02*X341969D01*
Y199496D01*
G54D167*X328969Y205496D02*Y199496D01*
X314969Y205496D02*Y199496D01*
G54D169*X260434Y233465D02*X261220D01*
X260434Y238975D02*X261220D01*
X260434Y225591D02*X261220D01*
X260434Y231101D02*X261220D01*
G54D167*X250906Y239094D02*X270906D01*
Y249094D02*Y239094D01*
X250906Y249094D02*X270906D01*
X250906D02*Y239094D01*
X260906Y249094D02*Y239094D01*
X250906Y249094D02*X260906D01*
X382953Y231535D02*Y211535D01*
X372953Y231535D02*X382953D01*
X372953D02*Y211535D01*
X382953D01*
X372953Y221535D02*X382953D01*
X372953D02*Y211535D01*
X457756Y249094D02*Y229094D01*
X447756Y249094D02*X457756D01*
X447756D02*Y229094D01*
X457756D01*
X447756Y239094D02*X457756D01*
X447756D02*Y229094D01*
X414449Y249252D02*Y229252D01*
X404449Y249252D02*X414449D01*
X404449D02*Y229252D01*
X414449D01*
X404449Y239252D02*X414449D01*
X404449D02*Y229252D01*
X282402Y284528D02*Y274528D01*
X292402D01*
Y284528D01*
X282402D01*
Y274528D02*X292402D01*
Y284528D01*
X325709Y237283D02*Y227283D01*
X335709D01*
Y237283D01*
X325709D01*
Y227283D02*X335709D01*
Y237283D01*
X306024D02*Y227283D01*
X316024D01*
Y237283D01*
X306024D01*
Y227283D02*X316024D01*
Y237283D01*
G54D169*X323946Y259939D02*X359946D01*
X323946Y274939D02*Y259939D01*
Y274939D02*X359946D01*
Y259939D01*
X331946Y274939D02*Y269939D01*
X328946Y266939D01*
X323946D02*X328946D01*
X306946Y290939D02*X376946D01*
X306946D02*Y240939D01*
X376946D01*
Y290939D02*Y240939D01*
G54D170*X215276Y215906D02*Y176535D01*
Y215906D02*X294016D01*
Y176535D01*
X215276D01*
G54D169*X227953Y240944D02*X228739D01*
X227953Y235434D02*X228739D01*
X227953Y234054D02*X228739D01*
X227953Y228544D02*X228739D01*
G54D167*X219409Y252047D02*X239409D01*
X219409D02*Y242047D01*
X239409D01*
Y252047D02*Y242047D01*
X229409Y252047D02*Y242047D01*
X239409D01*
X195787Y251063D02*Y231063D01*
X205787D01*
Y251063D01*
X195787D01*
Y241063D02*X205787D01*
Y251063D01*
X207598D02*Y231063D01*
X217598D01*
Y251063D01*
X207598D01*
Y241063D02*X217598D01*
Y251063D01*
G54D169*X153150Y237402D02*X153936D01*
X153150Y242912D02*X153936D01*
X125591D02*X126377D01*
X125591Y237402D02*X126377D01*
X153150Y229528D02*X153936D01*
X153150Y235038D02*X153936D01*
X125591D02*X126377D01*
X125591Y229528D02*X126377D01*
G54D167*X906Y239252D02*Y219252D01*
X10906D01*
Y239252D01*
X906D01*
Y229252D02*X10906D01*
Y239252D01*
X10748Y199724D02*X210748D01*
Y219724D02*Y199724D01*
X10748Y219724D02*X210748D01*
X10748D02*Y199724D01*
X20748Y209724D02*Y199724D01*
X10748Y209724D02*X20748D01*
X10748Y176102D02*X210748D01*
Y196102D02*Y176102D01*
X10748Y196102D02*X210748D01*
X10748D02*Y176102D01*
X20748Y186102D02*Y176102D01*
X10748Y186102D02*X20748D01*
X144606Y243031D02*X164606D01*
Y253031D02*Y243031D01*
X144606Y253031D02*X164606D01*
X144606D02*Y243031D01*
X154606Y253031D02*Y243031D01*
X144606Y253031D02*X154606D01*
X19685Y291339D02*Y232283D01*
X82677D01*
Y291339D01*
X19685D01*
X51181Y285433D02*X57087Y291339D01*
X51181Y285433D02*X45276Y291339D01*
X117047Y253031D02*X137047D01*
X117047D02*Y243031D01*
X137047D01*
Y253031D02*Y243031D01*
X127047Y253031D02*Y243031D01*
X137047D01*
X906Y262047D02*Y242047D01*
X10906D01*
Y262047D01*
X906D01*
Y252047D02*X10906D01*
Y262047D01*
X382953Y203976D02*Y183976D01*
X372953Y203976D02*X382953D01*
X372953D02*Y183976D01*
X382953D01*
X372953Y193976D02*X382953D01*
X372953D02*Y183976D01*
X406417Y164449D02*X426417D01*
X406417D02*Y154449D01*
X426417D01*
Y164449D02*Y154449D01*
X416417Y164449D02*Y154449D01*
X426417D01*
X406260Y121142D02*X426260D01*
X406260D02*Y111142D01*
X426260D01*
Y121142D02*Y111142D01*
X416260Y121142D02*Y111142D01*
X426260D01*
X428228Y60118D02*Y40118D01*
X418228Y60118D02*X428228D01*
X418228D02*Y40118D01*
X428228D01*
X418228Y50118D02*X428228D01*
X418228D02*Y40118D01*
X384921Y60276D02*Y40276D01*
X374921Y60276D02*X384921D01*
X374921D02*Y40276D01*
X384921D01*
X374921Y50276D02*X384921D01*
X374921D02*Y40276D01*
X252669Y199724D02*X253969D01*
X251969Y200424D02*X252669Y199724D01*
X251969Y203024D02*Y200424D01*
Y203024D02*X252669Y203724D01*
X253969D01*
X255169D02*X257169D01*
X255169D02*Y201724D01*
X255669Y202224D01*
X256669D01*
X257169Y201724D01*
Y200224D01*
X256669Y199724D02*X257169Y200224D01*
X255669Y199724D02*X256669D01*
X255169Y200224D02*X255669Y199724D01*
X270107Y230748D02*X271407D01*
X269407Y231448D02*X270107Y230748D01*
X269407Y234048D02*Y231448D01*
Y234048D02*X270107Y234748D01*
X271407D01*
X272607Y232248D02*X274607Y234748D01*
X272607Y232248D02*X275107D01*
X274607Y234748D02*Y230748D01*
X269092Y226874D02*X271092D01*
X271592Y226374D01*
Y225374D01*
X271092Y224874D02*X271592Y225374D01*
X269592Y224874D02*X271092D01*
X269592Y226874D02*Y222874D01*
X270392Y224874D02*X271592Y222874D01*
X272792Y224374D02*X274792Y226874D01*
X272792Y224374D02*X275292D01*
X274792Y226874D02*Y222874D01*
X247953Y258701D02*X249953D01*
X250453Y259201D01*
Y260401D02*Y259201D01*
X249953Y260901D02*X250453Y260401D01*
X248453Y260901D02*X249953D01*
X248453Y262701D02*Y258701D01*
X247953Y262701D02*X249953D01*
X250453Y262201D01*
Y261401D01*
X249953Y260901D02*X250453Y261401D01*
X251653Y262701D02*Y259201D01*
X252153Y258701D01*
X253153D01*
X253653Y259201D01*
Y262701D02*Y259201D01*
X254853Y262701D02*X256853D01*
X255853D02*Y258701D01*
X258053Y262701D02*X260053D01*
X259053D02*Y258701D01*
X261253Y262201D02*Y259201D01*
Y262201D02*X261753Y262701D01*
X262753D01*
X263253Y262201D01*
Y259201D01*
X262753Y258701D02*X263253Y259201D01*
X261753Y258701D02*X262753D01*
X261253Y259201D02*X261753Y258701D01*
X264453Y262701D02*Y258701D01*
Y262701D02*X266953Y258701D01*
Y262701D02*Y258701D01*
X268153Y260201D02*X270153Y262701D01*
X268153Y260201D02*X270653D01*
X270153Y262701D02*Y258701D01*
X225109Y240591D02*X226409D01*
X224409Y241291D02*X225109Y240591D01*
X224409Y243891D02*Y241291D01*
Y243891D02*X225109Y244591D01*
X226409D01*
X227609Y244091D02*X228109Y244591D01*
X229109D01*
X229609Y244091D01*
X229109Y240591D02*X229609Y241091D01*
X228109Y240591D02*X229109D01*
X227609Y241091D02*X228109Y240591D01*
Y242791D02*X229109D01*
X229609Y244091D02*Y243291D01*
Y242291D02*Y241091D01*
Y242291D02*X229109Y242791D01*
X229609Y243291D02*X229109Y242791D01*
X231968Y223922D02*X233968D01*
X234468Y223422D01*
Y222422D01*
X233968Y221922D02*X234468Y222422D01*
X232468Y221922D02*X233968D01*
X232468Y223922D02*Y219922D01*
X233268Y221922D02*X234468Y219922D01*
X235668Y223422D02*X236168Y223922D01*
X237168D01*
X237668Y223422D01*
X237168Y219922D02*X237668Y220422D01*
X236168Y219922D02*X237168D01*
X235668Y220422D02*X236168Y219922D01*
Y222122D02*X237168D01*
X237668Y223422D02*Y222622D01*
Y221622D02*Y220422D01*
Y221622D02*X237168Y222122D01*
X237668Y222622D02*X237168Y222122D01*
X362299Y197630D02*X362799Y198130D01*
X362299Y197630D02*Y196130D01*
X362799Y195630D02*X362299Y196130D01*
X362799Y195630D02*X363799D01*
X364299Y196130D01*
Y197630D02*Y196130D01*
Y197630D02*X364799Y198130D01*
X365799D01*
X366299Y197630D02*X365799Y198130D01*
X366299Y197630D02*Y196130D01*
X365799Y195630D02*X366299Y196130D01*
X362299Y199330D02*X364299D01*
X366299Y199830D01*
X364299Y200830D01*
X366299Y201830D01*
X364299Y202330D01*
X362299D02*X364299D01*
X362299Y204530D02*Y203530D01*
Y204030D02*X366299D01*
Y204530D02*Y203530D01*
X362299Y207730D02*Y205730D01*
Y206730D02*X366299D01*
Y210930D02*Y209630D01*
X365599Y208930D02*X366299Y209630D01*
X362999Y208930D02*X365599D01*
X362999D02*X362299Y209630D01*
Y210930D02*Y209630D01*
Y212130D02*X366299D01*
X362299Y214630D02*X366299D01*
X364299D02*Y212130D01*
X363099Y215830D02*X362299Y216630D01*
X366299D01*
Y217330D02*Y215830D01*
X362953Y177165D02*X364953D01*
X365453Y177665D01*
Y178865D02*Y177665D01*
X364953Y179365D02*X365453Y178865D01*
X363453Y179365D02*X364953D01*
X363453Y181165D02*Y177165D01*
X362953Y181165D02*X364953D01*
X365453Y180665D01*
Y179865D01*
X364953Y179365D02*X365453Y179865D01*
X366653Y180165D02*Y177165D01*
Y180165D02*X367353Y181165D01*
X368453D01*
X369153Y180165D01*
Y177165D01*
X366653Y179165D02*X369153D01*
X370353Y181165D02*X372353D01*
X371353D02*Y177165D01*
X373553Y181165D02*X375553D01*
X374553D02*Y177165D01*
X376753D02*X378753D01*
X379953D02*X381953D01*
X382453Y177665D01*
Y178865D02*Y177665D01*
X381953Y179365D02*X382453Y178865D01*
X380453Y179365D02*X381953D01*
X380453Y181165D02*Y177165D01*
X379953Y181165D02*X381953D01*
X382453Y180665D01*
Y179865D01*
X381953Y179365D02*X382453Y179865D01*
X383653Y180365D02*X384453Y181165D01*
Y177165D01*
X383653D02*X385153D01*
X356890Y234409D02*X358890D01*
X359390Y234909D01*
Y236109D02*Y234909D01*
X358890Y236609D02*X359390Y236109D01*
X357390Y236609D02*X358890D01*
X357390Y238409D02*Y234409D01*
X356890Y238409D02*X358890D01*
X359390Y237909D01*
Y237109D01*
X358890Y236609D02*X359390Y237109D01*
X360590Y237409D02*Y234409D01*
Y237409D02*X361290Y238409D01*
X362390D01*
X363090Y237409D01*
Y234409D01*
X360590Y236409D02*X363090D01*
X364290Y238409D02*X366290D01*
X365290D02*Y234409D01*
X367490Y238409D02*X369490D01*
X368490D02*Y234409D01*
X370690D02*X372690D01*
X373890Y237409D02*Y234409D01*
Y237409D02*X374590Y238409D01*
X375690D01*
X376390Y237409D01*
Y234409D01*
X373890Y236409D02*X376390D01*
X377590Y237609D02*X378390Y238409D01*
Y234409D01*
X377590D02*X379090D01*
X216811Y262362D02*X218811D01*
X219311Y262862D01*
Y264062D02*Y262862D01*
X218811Y264562D02*X219311Y264062D01*
X217311Y264562D02*X218811D01*
X217311Y266362D02*Y262362D01*
X216811Y266362D02*X218811D01*
X219311Y265862D01*
Y265062D01*
X218811Y264562D02*X219311Y265062D01*
X220511Y266362D02*Y262862D01*
X221011Y262362D01*
X222011D01*
X222511Y262862D01*
Y266362D02*Y262862D01*
X223711Y266362D02*X225711D01*
X224711D02*Y262362D01*
X226911Y266362D02*X228911D01*
X227911D02*Y262362D01*
X230111Y265862D02*Y262862D01*
Y265862D02*X230611Y266362D01*
X231611D01*
X232111Y265862D01*
Y262862D01*
X231611Y262362D02*X232111Y262862D01*
X230611Y262362D02*X231611D01*
X230111Y262862D02*X230611Y262362D01*
X233311Y266362D02*Y262362D01*
Y266362D02*X235811Y262362D01*
Y266362D02*Y262362D01*
X237011Y265862D02*X237511Y266362D01*
X238511D01*
X239011Y265862D01*
X238511Y262362D02*X239011Y262862D01*
X237511Y262362D02*X238511D01*
X237011Y262862D02*X237511Y262362D01*
Y264562D02*X238511D01*
X239011Y265862D02*Y265062D01*
Y264062D02*Y262862D01*
Y264062D02*X238511Y264562D01*
X239011Y265062D02*X238511Y264562D01*
X200693Y260206D02*Y259406D01*
X197193D02*X200693D01*
X196693Y259906D02*X197193Y259406D01*
X196693Y260406D02*Y259906D01*
X197193Y260906D02*X196693Y260406D01*
X197193Y260906D02*X197693D01*
X199893Y258206D02*X200693Y257406D01*
X196693D02*X200693D01*
X196693Y258206D02*Y256706D01*
X200193Y255506D02*X200693Y255006D01*
Y254006D01*
X200193Y253506D01*
X196693Y254006D02*X197193Y253506D01*
X196693Y255006D02*Y254006D01*
X197193Y255506D02*X196693Y255006D01*
X198893D02*Y254006D01*
X199393Y253506D02*X200193D01*
X197193D02*X198393D01*
X198893Y254006D01*
X199393Y253506D02*X198893Y254006D01*
X212504Y258237D02*Y257437D01*
X209004D02*X212504D01*
X208504Y257937D02*X209004Y257437D01*
X208504Y258437D02*Y257937D01*
X209004Y258937D02*X208504Y258437D01*
X209004Y258937D02*X209504D01*
X211704Y256237D02*X212504Y255437D01*
X208504D02*X212504D01*
X208504Y256237D02*Y254737D01*
X210004Y253537D02*X212504Y251537D01*
X210004Y253537D02*Y251037D01*
X208504Y251537D02*X212504D01*
X162362Y234748D02*X164362D01*
X164862Y234248D01*
Y233248D01*
X164362Y232748D02*X164862Y233248D01*
X162862Y232748D02*X164362D01*
X162862Y234748D02*Y230748D01*
X163662Y232748D02*X164862Y230748D01*
X166062Y234248D02*X166562Y234748D01*
X168062D01*
X168562Y234248D01*
Y233248D01*
X166062Y230748D02*X168562Y233248D01*
X166062Y230748D02*X168562D01*
X109094Y232780D02*X111094D01*
X111594Y232280D01*
Y231280D01*
X111094Y230780D02*X111594Y231280D01*
X109594Y230780D02*X111094D01*
X109594Y232780D02*Y228780D01*
X110394Y230780D02*X111594Y228780D01*
X112794Y231980D02*X113594Y232780D01*
Y228780D01*
X112794D02*X114294D01*
X321209Y237283D02*X324709D01*
X321209D02*X320709Y236783D01*
Y235783D01*
X321209Y235283D01*
X324709D01*
X323909Y234083D02*X324709Y233283D01*
X320709D02*X324709D01*
X320709Y234083D02*Y232583D01*
X321209Y231383D02*X320709Y230883D01*
X321209Y231383D02*X324209D01*
X324709Y230883D01*
Y229883D01*
X324209Y229383D01*
X321209D02*X324209D01*
X320709Y229883D02*X321209Y229383D01*
X320709Y230883D02*Y229883D01*
X321709Y231383D02*X323709Y229383D01*
X301524Y237283D02*X305024D01*
X301524D02*X301024Y236783D01*
Y235783D01*
X301524Y235283D01*
X305024D01*
X301024Y233583D02*X303024Y232083D01*
X304524D01*
X305024Y232583D02*X304524Y232083D01*
X305024Y233583D02*Y232583D01*
X304524Y234083D02*X305024Y233583D01*
X303524Y234083D02*X304524D01*
X303524D02*X303024Y233583D01*
Y232083D01*
X458756Y230594D02*Y229794D01*
Y230594D02*X462256D01*
X462756Y230094D02*X462256Y230594D01*
X462756Y230094D02*Y229594D01*
X462256Y229094D02*X462756Y229594D01*
X461756Y229094D02*X462256D01*
X459256Y231794D02*X458756Y232294D01*
Y233294D02*Y232294D01*
Y233294D02*X459256Y233794D01*
X462756Y233294D02*X462256Y233794D01*
X462756Y233294D02*Y232294D01*
X462256Y231794D02*X462756Y232294D01*
X460556Y233294D02*Y232294D01*
X459256Y233794D02*X460056D01*
X461056D02*X462256D01*
X461056D02*X460556Y233294D01*
X460056Y233794D02*X460556Y233294D01*
X415449Y230752D02*Y229952D01*
Y230752D02*X418949D01*
X419449Y230252D02*X418949Y230752D01*
X419449Y230252D02*Y229752D01*
X418949Y229252D02*X419449Y229752D01*
X418449Y229252D02*X418949D01*
X417949Y231952D02*X415449Y233952D01*
X417949Y234452D02*Y231952D01*
X415449Y233952D02*X419449D01*
X274528Y281402D02*Y277902D01*
X275028Y277402D01*
X276028D01*
X276528Y277902D01*
Y281402D02*Y277902D01*
X277728D02*X278228Y277402D01*
X277728Y278702D02*Y277902D01*
Y278702D02*X278428Y279402D01*
X279028D01*
X279728Y278702D01*
Y277902D01*
X279228Y277402D02*X279728Y277902D01*
X278228Y277402D02*X279228D01*
X277728Y280102D02*X278428Y279402D01*
X277728Y280902D02*Y280102D01*
Y280902D02*X278228Y281402D01*
X279228D01*
X279728Y280902D01*
Y280102D01*
X279028Y279402D02*X279728Y280102D01*
X339946Y270939D02*X341246D01*
X341946Y270239D02*X341246Y270939D01*
X341946Y270239D02*Y267639D01*
X341246Y266939D01*
X339946D02*X341246D01*
X338746Y270439D02*Y267439D01*
X338246Y266939D01*
X337246D02*X338246D01*
X337246D02*X336746Y267439D01*
Y270439D02*Y267439D01*
X337246Y270939D02*X336746Y270439D01*
X337246Y270939D02*X338246D01*
X338746Y270439D02*X338246Y270939D01*
X335546D02*Y266939D01*
X333046Y270939D01*
Y266939D01*
X331846Y270939D02*Y266939D01*
X329346Y270939D01*
Y266939D01*
X328146Y267739D02*X327346Y266939D01*
Y270939D02*Y266939D01*
X326646Y270939D02*X328146D01*
X341969Y195996D02*Y192496D01*
Y195996D02*X341469Y196496D01*
X340469D02*X341469D01*
X340469D02*X339969Y195996D01*
Y192496D01*
X338768Y193296D02*X337968Y192496D01*
Y196496D02*Y192496D01*
X337268Y196496D02*X338768D01*
X424917Y165449D02*X425717D01*
X424917Y168949D02*Y165449D01*
X425417Y169449D02*X424917Y168949D01*
X425417Y169449D02*X425917D01*
X426417Y168949D02*X425917Y169449D01*
X426417Y168949D02*Y168449D01*
X421717Y165449D02*X423717D01*
Y167449D02*Y165449D01*
Y167449D02*X423217Y166949D01*
X422217D02*X423217D01*
X422217D02*X421717Y167449D01*
Y168949D02*Y167449D01*
X422217Y169449D02*X421717Y168949D01*
X422217Y169449D02*X423217D01*
X423717Y168949D02*X423217Y169449D01*
X163139Y238622D02*X164439D01*
X162439Y239322D02*X163139Y238622D01*
X162439Y241922D02*Y239322D01*
Y241922D02*X163139Y242622D01*
X164439D01*
X165639Y242122D02*X166139Y242622D01*
X167639D01*
X168139Y242122D01*
Y241122D01*
X165639Y238622D02*X168139Y241122D01*
X165639Y238622D02*X168139D01*
X110935Y238307D02*X112235D01*
X110235Y239007D02*X110935Y238307D01*
X110235Y241607D02*Y239007D01*
Y241607D02*X110935Y242307D01*
X112235D01*
X113435Y241507D02*X114235Y242307D01*
Y238307D01*
X113435D02*X114935D01*
X2590Y208567D02*X3390D01*
Y205067D01*
X2890Y204567D02*X3390Y205067D01*
X2390Y204567D02*X2890D01*
X1890Y205067D02*X2390Y204567D01*
X1890Y205567D02*Y205067D01*
X4590Y207767D02*X5390Y208567D01*
Y204567D01*
X4590D02*X6090D01*
X7290Y205067D02*X7790Y204567D01*
X7290Y208067D02*Y205067D01*
Y208067D02*X7790Y208567D01*
X8790D01*
X9290Y208067D01*
Y205067D01*
X8790Y204567D02*X9290Y205067D01*
X7790Y204567D02*X8790D01*
X7290Y205567D02*X9290Y207567D01*
X4558Y185929D02*X5358D01*
Y182429D01*
X4858Y181929D02*X5358Y182429D01*
X4358Y181929D02*X4858D01*
X3858Y182429D02*X4358Y181929D01*
X3858Y182929D02*Y182429D01*
X7058Y181929D02*X8558Y183929D01*
Y185429D02*Y183929D01*
X8058Y185929D02*X8558Y185429D01*
X7058Y185929D02*X8058D01*
X6558Y185429D02*X7058Y185929D01*
X6558Y185429D02*Y184429D01*
X7058Y183929D01*
X8558D01*
X18606Y237568D02*Y236768D01*
X15106D02*X18606D01*
X14606Y237268D02*X15106Y236768D01*
X14606Y237768D02*Y237268D01*
X15106Y238268D02*X14606Y237768D01*
X15106Y238268D02*X15606D01*
X17806Y235568D02*X18606Y234768D01*
X14606D02*X18606D01*
X14606Y235568D02*Y234068D01*
X18106Y232868D02*X18606Y232368D01*
Y230868D01*
X18106Y230368D01*
X17106D02*X18106D01*
X14606Y232868D02*X17106Y230368D01*
X14606Y232868D02*Y230368D01*
X143622Y263622D02*X145622D01*
X146122Y264122D01*
Y265322D02*Y264122D01*
X145622Y265822D02*X146122Y265322D01*
X144122Y265822D02*X145622D01*
X144122Y267622D02*Y263622D01*
X143622Y267622D02*X145622D01*
X146122Y267122D01*
Y266322D01*
X145622Y265822D02*X146122Y266322D01*
X147322Y267622D02*Y264122D01*
X147822Y263622D01*
X148822D01*
X149322Y264122D01*
Y267622D02*Y264122D01*
X150522Y267622D02*X152522D01*
X151522D02*Y263622D01*
X153722Y267622D02*X155722D01*
X154722D02*Y263622D01*
X156922Y267122D02*Y264122D01*
Y267122D02*X157422Y267622D01*
X158422D01*
X158922Y267122D01*
Y264122D01*
X158422Y263622D02*X158922Y264122D01*
X157422Y263622D02*X158422D01*
X156922Y264122D02*X157422Y263622D01*
X160122Y267622D02*Y263622D01*
Y267622D02*X162622Y263622D01*
Y267622D02*Y263622D01*
X163822Y267122D02*X164322Y267622D01*
X165822D01*
X166322Y267122D01*
Y266122D01*
X163822Y263622D02*X166322Y266122D01*
X163822Y263622D02*X166322D01*
X51181Y260811D02*Y257311D01*
X51681Y256811D01*
X52681D01*
X53181Y257311D01*
Y260811D02*Y257311D01*
X54881Y256811D02*X56881Y260811D01*
X54381D02*X56881D01*
X110906Y262165D02*X112906D01*
X113406Y262665D01*
Y263865D02*Y262665D01*
X112906Y264365D02*X113406Y263865D01*
X111406Y264365D02*X112906D01*
X111406Y266165D02*Y262165D01*
X110906Y266165D02*X112906D01*
X113406Y265665D01*
Y264865D01*
X112906Y264365D02*X113406Y264865D01*
X114606Y266165D02*Y262665D01*
X115106Y262165D01*
X116106D01*
X116606Y262665D01*
Y266165D02*Y262665D01*
X117806Y266165D02*X119806D01*
X118806D02*Y262165D01*
X121006Y266165D02*X123006D01*
X122006D02*Y262165D01*
X124206Y265665D02*Y262665D01*
Y265665D02*X124706Y266165D01*
X125706D01*
X126206Y265665D01*
Y262665D01*
X125706Y262165D02*X126206Y262665D01*
X124706Y262165D02*X125706D01*
X124206Y262665D02*X124706Y262165D01*
X127406Y266165D02*Y262165D01*
Y266165D02*X129906Y262165D01*
Y266165D02*Y262165D01*
X131106Y265365D02*X131906Y266165D01*
Y262165D01*
X131106D02*X132606D01*
X17426Y257607D02*Y256807D01*
X13926D02*X17426D01*
X13426Y257307D02*X13926Y256807D01*
X13426Y257807D02*Y257307D01*
X13926Y258307D02*X13426Y257807D01*
X13926Y258307D02*X14426D01*
X16626Y255607D02*X17426Y254807D01*
X13426D02*X17426D01*
X13426Y255607D02*Y254107D01*
X16626Y252907D02*X17426Y252107D01*
X13426D02*X17426D01*
X13426Y252907D02*Y251407D01*
X429228Y41618D02*Y40818D01*
Y41618D02*X432728D01*
X433228Y41118D02*X432728Y41618D01*
X433228Y41118D02*Y40618D01*
X432728Y40118D02*X433228Y40618D01*
X432228Y40118D02*X432728D01*
X429728Y42818D02*X429228Y43318D01*
Y44818D02*Y43318D01*
Y44818D02*X429728Y45318D01*
X430728D01*
X433228Y42818D02*X430728Y45318D01*
X433228D02*Y42818D01*
X385921Y41776D02*Y40976D01*
Y41776D02*X389421D01*
X389921Y41276D02*X389421Y41776D01*
X389921Y41276D02*Y40776D01*
X389421Y40276D02*X389921Y40776D01*
X388921Y40276D02*X389421D01*
X386721Y42976D02*X385921Y43776D01*
X389921D01*
Y44476D02*Y42976D01*
X424760Y122142D02*X425560D01*
X424760Y125642D02*Y122142D01*
X425260Y126142D02*X424760Y125642D01*
X425260Y126142D02*X425760D01*
X426260Y125642D02*X425760Y126142D01*
X426260Y125642D02*Y125142D01*
X422060Y122142D02*X421560Y122642D01*
X422060Y122142D02*X423060D01*
X423560Y122642D02*X423060Y122142D01*
X423560Y125642D02*Y122642D01*
Y125642D02*X423060Y126142D01*
X422060Y123942D02*X421560Y124442D01*
X422060Y123942D02*X423560D01*
X422060Y126142D02*X423060D01*
X422060D02*X421560Y125642D01*
Y124442D01*
M02*
