M48
INCH
T142C0.079
T141C0.020
T140C0.130
T139C0.035
T138C0.060
T137C0.059
T136C0.067
T135C0.038
%
T141
X009055Y022146
X010138Y024803
X010709Y027047
X012953Y023228
X015630Y025709
X017402Y027047
X021850Y023917
X023189Y023819
X024095Y027047
X024095Y025709
X025886Y025689
X029331Y025039
X031102Y026378
X031102Y025039
T139
X001280Y012894
X001280Y004232
X002756Y027362
X007972Y023622
X010925Y023622
X022512Y019622
X022933Y021457
X028614Y019622
X032795Y027094
X033195Y026394
X033595Y027094
X033995Y026394
X034395Y027094
X034795Y026394
X035195Y027094
X035595Y026394
T135
X000591Y025705
X000591Y024705
X000591Y023425
X000591Y022425
X001575Y021472
X001575Y020472
X001575Y019110
X001575Y018110
X002575Y021472
X002575Y020472
X002575Y019110
X002575Y018110
X003575Y021472
X003575Y020472
X003575Y019110
X003575Y018110
X004575Y021472
X004575Y020472
X004575Y019110
X004575Y018110
X005575Y021472
X005575Y020472
X005575Y019110
X005575Y018110
X006575Y021472
X006575Y020472
X006575Y019110
X006575Y018110
X007575Y021472
X007575Y020472
X007575Y019110
X007575Y018110
X008575Y021472
X008575Y020472
X008575Y019110
X008575Y018110
X009575Y021472
X009575Y020472
X009575Y019110
X009575Y018110
X010575Y021472
X010575Y020472
X010575Y019110
X010575Y018110
X011575Y021472
X011575Y020472
X011575Y019110
X011575Y018110
X012205Y024803
X012575Y021472
X012575Y020472
X012575Y019110
X012575Y018110
X013205Y024803
X013575Y021472
X013575Y020472
X013575Y019110
X013575Y018110
X014575Y021472
X014575Y020472
X014575Y019110
X014575Y018110
X014961Y024803
X015575Y021472
X015575Y020472
X015575Y019110
X015575Y018110
X015961Y024803
X016575Y021472
X016575Y020472
X016575Y019110
X016575Y018110
X017575Y021472
X017575Y020472
X017575Y019110
X017575Y018110
X018575Y021472
X018575Y020472
X018575Y019110
X018575Y018110
X019575Y021472
X019575Y020472
X019575Y019110
X019575Y018110
X020079Y024606
X020079Y023606
X020575Y021472
X020575Y020472
X020575Y019110
X020575Y018110
X021260Y024606
X021260Y023606
X022441Y024705
X023441Y024705
X025591Y024409
X026591Y024409
X028740Y027953
X031102Y023228
X033071Y023228
X035433Y021063
X035433Y020063
X037795Y022654
X037795Y021654
X037795Y019898
X037795Y018898
X037992Y005528
X037992Y004528
X040945Y024425
X040945Y023425
X041126Y011614
X041142Y015945
X042126Y011614
X042142Y015945
X042323Y005512
X042323Y004512
X045276Y024409
X045276Y023409
T137
X005118Y027362
T138
X031197Y021150
X032197Y021150
X033197Y021150
T136
X005118Y025591
T142
X003937Y012894
X003937Y004232
X032283Y012894
X032283Y004232
T140
X031695Y028094
X036695Y028094
M30
