G04 start of page 16 for group -4015 idx -4015 *
G04 Title: (unknown), toppaste *
G04 Creator: pcb 20140316 *
G04 CreationDate: Tue 28 Aug 2018 04:48:26 PM GMT UTC *
G04 For: cwispell *
G04 Format: Gerber/RS-274X *
G04 PCB-Dimensions (mil): 4685.04 2913.39 *
G04 PCB-Coordinate-Origin: lower left *
%MOIN*%
%FSLAX25Y25*%
%LNTOPPASTE*%
%ADD175R,0.1181X0.1181*%
%ADD174C,0.0001*%
%ADD173R,0.0512X0.0512*%
G54D173*X264370Y236613D02*Y235827D01*
X257284Y236613D02*Y235827D01*
X264370Y228739D02*Y227953D01*
X257284Y228739D02*Y227953D01*
X224803Y238582D02*Y237796D01*
X231889Y238582D02*Y237796D01*
X224803Y231692D02*Y230906D01*
X231889Y231692D02*Y230906D01*
X157086Y240550D02*Y239764D01*
X150000Y240550D02*Y239764D01*
X157086Y232676D02*Y231890D01*
X150000Y232676D02*Y231890D01*
X122441Y240550D02*Y239764D01*
X129527Y240550D02*Y239764D01*
X122441Y232676D02*Y231890D01*
X129527Y232676D02*Y231890D01*
G54D174*G36*
X21654Y279528D02*Y267717D01*
X33465D01*
Y279528D01*
X21654D01*
G37*
G36*
Y253937D02*Y242126D01*
X33465D01*
Y253937D01*
X21654D01*
G37*
G54D175*X74803Y273622D02*Y248031D01*
M02*
