G04 start of page 12 for group -4063 idx -4063 *
G04 Title: (unknown), componentmask *
G04 Creator: pcb 20140316 *
G04 CreationDate: Tue 28 Aug 2018 04:48:26 PM GMT UTC *
G04 For: cwispell *
G04 Format: Gerber/RS-274X *
G04 PCB-Dimensions (mil): 4685.04 2913.39 *
G04 PCB-Coordinate-Origin: lower left *
%MOIN*%
%FSLAX25Y25*%
%LNTOPMASK*%
%ADD155R,0.1381X0.1381*%
%ADD154R,0.0572X0.0572*%
%ADD153C,0.0847*%
%ADD152C,0.1241*%
%ADD151C,0.0560*%
%ADD150C,0.1660*%
%ADD149C,0.0960*%
%ADD148C,0.0660*%
%ADD147C,0.0651*%
%ADD146C,0.0729*%
%ADD145C,0.0001*%
G54D145*G36*
X146306Y251331D02*Y244731D01*
X152906D01*
Y251331D01*
X146306D01*
G37*
G54D146*X51181Y255906D03*
G54D147*Y273622D03*
G54D145*G36*
X128747Y251331D02*Y244731D01*
X135347D01*
Y251331D01*
X128747D01*
G37*
G54D148*X122047Y248031D03*
X159606D03*
G54D145*G36*
X2606Y260347D02*Y253747D01*
X9206D01*
Y260347D01*
X2606D01*
G37*
G54D148*X5906Y247047D03*
G54D145*G36*
X197487Y249363D02*Y242763D01*
X204087D01*
Y249363D01*
X197487D01*
G37*
G36*
X209298D02*Y242763D01*
X215898D01*
Y249363D01*
X209298D01*
G37*
G36*
X12448Y208024D02*Y201424D01*
X19048D01*
Y208024D01*
X12448D01*
G37*
G54D148*X25748Y204724D03*
X35748D03*
X15748Y214724D03*
X25748D03*
X35748D03*
X45748D03*
X55748D03*
X65748D03*
G54D145*G36*
X12448Y184402D02*Y177802D01*
X19048D01*
Y184402D01*
X12448D01*
G37*
G54D148*X15748Y191102D03*
X25748D03*
X35748D03*
G54D145*G36*
X2606Y237552D02*Y230952D01*
X9206D01*
Y237552D01*
X2606D01*
G37*
G54D148*X5906Y224252D03*
X75748Y214724D03*
X85748D03*
X95748D03*
X75748Y204724D03*
X85748D03*
X95748D03*
X105748Y214724D03*
X115748D03*
X125748D03*
X105748Y204724D03*
X115748D03*
X125748D03*
X135748D03*
Y214724D03*
X145748D03*
X155748D03*
X145748Y204724D03*
X155748D03*
X165748D03*
X175748D03*
X185748D03*
X195748D03*
X165748Y214724D03*
X175748D03*
X185748D03*
X195748D03*
X205748Y204724D03*
Y214724D03*
X200787Y236063D03*
X212598D03*
X45748Y204724D03*
X55748D03*
X65748D03*
X25748Y181102D03*
X35748D03*
X45748D03*
X55748D03*
X65748D03*
X75748D03*
X45748Y191102D03*
X55748D03*
X65748D03*
X75748D03*
X85748Y181102D03*
Y191102D03*
X95748D03*
X105748D03*
X95748Y181102D03*
X105748D03*
X115748D03*
X125748D03*
X135748D03*
X145748D03*
X115748Y191102D03*
X125748D03*
X135748D03*
X145748D03*
X155748Y181102D03*
X165748D03*
X175748D03*
X185748D03*
X195748D03*
X205748D03*
X155748Y191102D03*
X165748D03*
X175748D03*
X185748D03*
X195748D03*
X205748D03*
G54D145*G36*
X351031Y203930D02*Y197330D01*
X357631D01*
Y203930D01*
X351031D01*
G37*
G54D148*X354331Y210630D03*
G54D145*G36*
X374653Y192276D02*Y185676D01*
X381253D01*
Y192276D01*
X374653D01*
G37*
G54D148*X377953Y198976D03*
G54D145*G36*
X374653Y219835D02*Y213235D01*
X381253D01*
Y219835D01*
X374653D01*
G37*
G54D148*X377953Y226535D03*
G54D145*G36*
X327409Y235583D02*Y228983D01*
X334009D01*
Y235583D01*
X327409D01*
G37*
G36*
X327169Y216296D02*Y206696D01*
X336769D01*
Y216296D01*
X327169D01*
G37*
G54D149*X321969Y211496D03*
X311969D03*
G54D148*X225118Y196220D03*
X286142D03*
G54D145*G36*
X252606Y247394D02*Y240794D01*
X259206D01*
Y247394D01*
X252606D01*
G37*
G54D148*X265906Y244094D03*
G54D145*G36*
X231109Y250347D02*Y243747D01*
X237709D01*
Y250347D01*
X231109D01*
G37*
G54D148*X224409Y247047D03*
G54D145*G36*
X284102Y282828D02*Y276228D01*
X290702D01*
Y282828D01*
X284102D01*
G37*
G36*
X307724Y235583D02*Y228983D01*
X314324D01*
Y235583D01*
X307724D01*
G37*
G36*
X449456Y237394D02*Y230794D01*
X456056D01*
Y237394D01*
X449456D01*
G37*
G54D148*X452756Y244094D03*
G54D145*G36*
X406149Y237552D02*Y230952D01*
X412749D01*
Y237552D01*
X406149D01*
G37*
G54D148*X409449Y244252D03*
G54D150*X366946Y280939D03*
X316946D03*
G54D151*X351946Y270939D03*
X355946Y263939D03*
X347946D03*
X343946Y270939D03*
X335946D03*
G54D145*G36*
X325146Y273739D02*Y268139D01*
X330746D01*
Y273739D01*
X325146D01*
G37*
G54D151*X339946Y263939D03*
X331946D03*
G54D145*G36*
X419928Y48418D02*Y41818D01*
X426528D01*
Y48418D01*
X419928D01*
G37*
G54D148*X423228Y55118D03*
G54D145*G36*
X376621Y48576D02*Y41976D01*
X383221D01*
Y48576D01*
X376621D01*
G37*
G54D148*X379921Y55276D03*
G54D145*G36*
X418117Y162749D02*Y156149D01*
X424717D01*
Y162749D01*
X418117D01*
G37*
G54D148*X411417Y159449D03*
G54D145*G36*
X417960Y119442D02*Y112842D01*
X424560D01*
Y119442D01*
X417960D01*
G37*
G54D148*X411260Y116142D03*
G54D152*X11811Y271654D03*
G54D153*X348425Y84646D03*
X12795D03*
G54D152*X401575Y51181D03*
X415354Y137795D03*
X381890Y271654D03*
X431102Y240157D03*
G54D154*X224803Y238582D02*Y237796D01*
X231889Y238582D02*Y237796D01*
X224803Y231692D02*Y230906D01*
X231889Y231692D02*Y230906D01*
X264370Y236613D02*Y235827D01*
X257284Y236613D02*Y235827D01*
X264370Y228739D02*Y227953D01*
X257284Y228739D02*Y227953D01*
X157086Y240550D02*Y239764D01*
X150000Y240550D02*Y239764D01*
X122441Y240550D02*Y239764D01*
X129527Y240550D02*Y239764D01*
X157086Y232676D02*Y231890D01*
X150000Y232676D02*Y231890D01*
X122441Y232676D02*Y231890D01*
X129527Y232676D02*Y231890D01*
G54D145*G36*
X20654Y280528D02*Y266717D01*
X34465D01*
Y280528D01*
X20654D01*
G37*
G36*
Y254937D02*Y241126D01*
X34465D01*
Y254937D01*
X20654D01*
G37*
G54D155*X74803Y273622D02*Y248031D01*
M02*
