G04 start of page 17 for group -4014 idx -4014 *
G04 Title: (unknown), bottompaste *
G04 Creator: pcb 20140316 *
G04 CreationDate: Tue 28 Aug 2018 04:48:26 PM GMT UTC *
G04 For: cwispell *
G04 Format: Gerber/RS-274X *
G04 PCB-Dimensions (mil): 4685.04 2913.39 *
G04 PCB-Coordinate-Origin: lower left *
%MOIN*%
%FSLAX25Y25*%
%LNBOTTOMPASTE*%
%ADD177R,0.0787X0.0787*%
%ADD176R,0.0551X0.0551*%
G54D176*X291338Y250394D02*X295275D01*
X309055D02*X312992D01*
X291338Y263780D02*X295275D01*
X309055D02*X312992D01*
X154331Y257087D02*X158268D01*
X172048D02*X175985D01*
X154331Y270472D02*X158268D01*
X172048D02*X175985D01*
X87402Y257087D02*X91339D01*
X105119D02*X109056D01*
X87402Y270472D02*X91339D01*
X105119D02*X109056D01*
X221260Y257087D02*X225197D01*
X238977D02*X242914D01*
X221260Y270472D02*X225197D01*
X238977D02*X242914D01*
G54D177*X418307Y75788D02*X422244D01*
X380906D02*X384843D01*
X418307Y93504D02*X422244D01*
X380906D02*X384843D01*
X418307Y8859D02*X422244D01*
X380906D02*X384843D01*
X418307Y26575D02*X422244D01*
X380906D02*X384843D01*
X447834Y264764D02*X451771D01*
X410433D02*X414370D01*
X447834Y282480D02*X451771D01*
X410433D02*X414370D01*
X447834Y197835D02*X451771D01*
X410433D02*X414370D01*
X447834Y215551D02*X451771D01*
X410433D02*X414370D01*
X390748Y158464D02*Y154527D01*
Y121063D02*Y117126D01*
X373032Y158464D02*Y154527D01*
Y121063D02*Y117126D01*
X457677Y158464D02*Y154527D01*
Y121063D02*Y117126D01*
X439961Y158464D02*Y154527D01*
Y121063D02*Y117126D01*
M02*
