G04 start of page 7 for group 5 idx 5 *
G04 Title: (unknown), bottom *
G04 Creator: pcb 20140316 *
G04 CreationDate: Tue 28 Aug 2018 04:48:26 PM GMT UTC *
G04 For: cwispell *
G04 Format: Gerber/RS-274X *
G04 PCB-Dimensions (mil): 4685.04 2913.39 *
G04 PCB-Coordinate-Origin: lower left *
%MOIN*%
%FSLAX25Y25*%
%LNBOTTOM*%
%ADD117C,0.1300*%
%ADD116C,0.0591*%
%ADD115C,0.0669*%
%ADD114C,0.0380*%
%ADD113C,0.0787*%
%ADD112C,0.0200*%
%ADD111C,0.0350*%
%ADD110C,0.1181*%
%ADD109C,0.0360*%
%ADD108R,0.0787X0.0787*%
%ADD107R,0.0551X0.0551*%
%ADD106C,0.0500*%
%ADD105C,0.1600*%
%ADD104C,0.0900*%
%ADD103C,0.0600*%
%ADD102C,0.0631*%
%ADD101C,0.0709*%
%ADD100C,0.0001*%
%ADD99C,0.0100*%
%ADD98C,0.0984*%
%ADD97C,0.0250*%
%ADD96C,0.0400*%
G54D96*X321969Y211496D02*Y203858D01*
X314331Y196220D01*
G54D97*X321969Y211496D02*X322835Y212362D01*
Y255906D01*
G54D98*X301181Y150591D02*X322835Y128937D01*
G54D96*X314331Y196220D02*X286142D01*
G54D97*X342677Y188976D02*X263780D01*
X256535Y196220D01*
X225118D01*
X354331Y181102D02*X229331D01*
G54D96*X286142Y196220D02*X267795Y214567D01*
X350236Y200630D02*X354331D01*
G54D97*X342677Y188976D01*
X354331Y210630D02*X364173Y200787D01*
Y190945D01*
X354331Y181102D01*
X339946Y263939D02*X331913Y255906D01*
X322835D01*
X314961Y263780D01*
X311024D01*
X291338D02*X284448Y256890D01*
X258465Y250394D02*X293307D01*
X284448Y256890D02*X258858D01*
X231889Y238189D02*X230905Y239173D01*
G54D96*X228346Y214567D02*X216535Y226378D01*
G54D97*X217520Y200787D02*Y215551D01*
X230905Y239173D02*X218504D01*
X205748Y182126D02*Y181102D01*
X229331D02*X218504Y191929D01*
X205748Y204724D02*X211614Y198858D01*
Y187992D01*
X205748Y182126D01*
X218504Y191929D02*Y199803D01*
X217520Y200787D01*
Y215551D02*X211614Y221457D01*
X212598Y246063D02*X219488Y239173D01*
Y229331D01*
X216535Y226378D01*
X211614Y221457D02*X208661D01*
G54D96*X267795Y214567D02*X228346D01*
G54D97*X225197Y257087D02*X230906Y262795D01*
X246063D01*
X258465Y250394D01*
X382874Y8859D02*X420275D01*
X382874Y26574D02*X420275D01*
X422244Y8859D02*X431102Y17717D01*
Y31496D02*Y17717D01*
X422244Y26574D02*X423228Y27559D01*
X382874Y75788D02*X420275D01*
X382874Y93504D02*X420275D01*
X379921Y72835D02*Y55276D01*
Y72835D02*X382874Y75788D01*
X372047Y82677D02*X382874Y93504D01*
X379921Y45276D02*X372047Y53150D01*
X423228Y55118D02*X431102Y47244D01*
Y31059D01*
X423228Y45118D02*Y27559D01*
X372047Y82677D02*Y53150D01*
X412402Y197835D02*X449803D01*
X412402Y215551D02*X449803D01*
X412402Y264764D02*X449803D01*
X409449Y261811D02*Y244252D01*
Y261811D02*X412402Y264764D01*
X409449Y234252D02*X401575Y242126D01*
Y271654D02*Y242126D01*
Y271654D02*X412401Y282480D01*
X449803D01*
X451771Y197835D02*X460630Y206693D01*
X452756Y244094D02*X460630Y236220D01*
Y220035D01*
Y220472D02*Y206693D01*
X451771Y215551D02*X452756Y216535D01*
Y234094D02*Y216535D01*
X457677Y156496D02*Y119095D01*
Y158464D02*X448819Y167323D01*
X435039D02*X448819D01*
X439961Y158464D02*X438976Y159449D01*
X439961Y156496D02*Y119095D01*
X390748Y156496D02*Y119095D01*
X373032Y156496D02*Y119094D01*
X393701Y116142D02*X411260D01*
X383858Y108268D02*X413386D01*
X383858D02*X373032Y119094D01*
X393701Y116142D02*X390748Y119095D01*
X421260Y116142D02*X413386Y108268D01*
X411417Y159449D02*X419291Y167323D01*
X435476D01*
X421417Y159449D02*X438976D01*
G54D99*X172048Y257087D02*X185433Y270472D01*
X223228D01*
X135039Y257087D02*X148425Y270472D01*
X156299D01*
G54D97*X197047Y257087D02*X223228D01*
G54D96*X66929Y226378D02*X27559Y265748D01*
Y273622D01*
G54D97*X11969Y257047D02*X27559Y272638D01*
X13780Y249173D02*Y241142D01*
X15748Y191102D02*X9843Y197008D01*
Y208819D01*
X5906Y257047D02*X11969D01*
X5906D02*X13780Y249173D01*
Y241142D02*X6890Y234252D01*
X5906D01*
X9843Y208819D02*X15748Y214724D01*
G54D98*X12795Y128937D02*X34449Y150591D01*
X12795Y42323D02*X39370D01*
X125984D02*X39370Y128937D01*
G54D96*X216535Y226378D02*X66929D01*
G54D97*X210630Y221457D02*X32480D01*
X25748Y214724D01*
G54D98*X34449Y150591D02*X301181D01*
X125984Y42323D02*X322835D01*
G54D97*X156299Y257087D02*X160236D01*
X181260Y236063D01*
X212598D02*X181260D01*
X111220Y248031D02*X101378D01*
X166831Y250492D02*X190453D01*
X197047Y257087D01*
G54D99*X105119D02*X135039D01*
G54D97*X129527Y232283D02*X125590Y236220D01*
X109252D01*
X117126Y253937D02*X111220Y248031D01*
X156299Y257087D02*X153150Y253937D01*
X117126D01*
X101378Y248031D02*X92323Y257087D01*
X89370D01*
X79724Y236220D02*X108268D01*
G54D100*G36*
X146606Y251031D02*Y245031D01*
X152606D01*
Y251031D01*
X146606D01*
G37*
G54D101*X51181Y255906D03*
G54D102*Y273622D03*
G54D100*G36*
X129047Y251031D02*Y245031D01*
X135047D01*
Y251031D01*
X129047D01*
G37*
G54D103*X122047Y248031D03*
X159606D03*
G54D100*G36*
X2906Y260047D02*Y254047D01*
X8906D01*
Y260047D01*
X2906D01*
G37*
G54D103*X5906Y247047D03*
G54D100*G36*
X197787Y249063D02*Y243063D01*
X203787D01*
Y249063D01*
X197787D01*
G37*
G36*
X209598D02*Y243063D01*
X215598D01*
Y249063D01*
X209598D01*
G37*
G36*
X12748Y207724D02*Y201724D01*
X18748D01*
Y207724D01*
X12748D01*
G37*
G54D103*X25748Y204724D03*
X35748D03*
X15748Y214724D03*
X25748D03*
X35748D03*
X45748D03*
X55748D03*
X65748D03*
G54D100*G36*
X12748Y184102D02*Y178102D01*
X18748D01*
Y184102D01*
X12748D01*
G37*
G54D103*X15748Y191102D03*
X25748D03*
X35748D03*
G54D100*G36*
X2906Y237252D02*Y231252D01*
X8906D01*
Y237252D01*
X2906D01*
G37*
G54D103*X5906Y224252D03*
X75748Y214724D03*
X85748D03*
X95748D03*
X75748Y204724D03*
X85748D03*
X95748D03*
X105748Y214724D03*
X115748D03*
X125748D03*
X105748Y204724D03*
X115748D03*
X125748D03*
X135748D03*
Y214724D03*
X145748D03*
X155748D03*
X145748Y204724D03*
X155748D03*
X165748D03*
X175748D03*
X185748D03*
X195748D03*
X165748Y214724D03*
X175748D03*
X185748D03*
X195748D03*
X205748Y204724D03*
Y214724D03*
X200787Y236063D03*
X212598D03*
X45748Y204724D03*
X55748D03*
X65748D03*
X25748Y181102D03*
X35748D03*
X45748D03*
X55748D03*
X65748D03*
X75748D03*
X45748Y191102D03*
X55748D03*
X65748D03*
X75748D03*
X85748Y181102D03*
Y191102D03*
X95748D03*
X105748D03*
X95748Y181102D03*
X105748D03*
X115748D03*
X125748D03*
X135748D03*
X145748D03*
X115748Y191102D03*
X125748D03*
X135748D03*
X145748D03*
X155748Y181102D03*
X165748D03*
X175748D03*
X185748D03*
X195748D03*
X205748D03*
X155748Y191102D03*
X165748D03*
X175748D03*
X185748D03*
X195748D03*
X205748D03*
G54D100*G36*
X351331Y203630D02*Y197630D01*
X357331D01*
Y203630D01*
X351331D01*
G37*
G54D103*X354331Y210630D03*
G54D100*G36*
X374953Y191976D02*Y185976D01*
X380953D01*
Y191976D01*
X374953D01*
G37*
G54D103*X377953Y198976D03*
G54D100*G36*
X374953Y219535D02*Y213535D01*
X380953D01*
Y219535D01*
X374953D01*
G37*
G54D103*X377953Y226535D03*
G54D100*G36*
X327709Y235283D02*Y229283D01*
X333709D01*
Y235283D01*
X327709D01*
G37*
G36*
X327469Y215996D02*Y206996D01*
X336469D01*
Y215996D01*
X327469D01*
G37*
G54D104*X321969Y211496D03*
X311969D03*
G54D103*X225118Y196220D03*
X286142D03*
G54D100*G36*
X252906Y247094D02*Y241094D01*
X258906D01*
Y247094D01*
X252906D01*
G37*
G54D103*X265906Y244094D03*
G54D100*G36*
X231409Y250047D02*Y244047D01*
X237409D01*
Y250047D01*
X231409D01*
G37*
G54D103*X224409Y247047D03*
G54D100*G36*
X284402Y282528D02*Y276528D01*
X290402D01*
Y282528D01*
X284402D01*
G37*
G36*
X308024Y235283D02*Y229283D01*
X314024D01*
Y235283D01*
X308024D01*
G37*
G36*
X449756Y237094D02*Y231094D01*
X455756D01*
Y237094D01*
X449756D01*
G37*
G54D103*X452756Y244094D03*
G54D100*G36*
X406449Y237252D02*Y231252D01*
X412449D01*
Y237252D01*
X406449D01*
G37*
G54D103*X409449Y244252D03*
G54D105*X366946Y280939D03*
X316946D03*
G54D106*X351946Y270939D03*
X355946Y263939D03*
X347946D03*
X343946Y270939D03*
X335946D03*
G54D100*G36*
X325446Y273439D02*Y268439D01*
X330446D01*
Y273439D01*
X325446D01*
G37*
G54D106*X339946Y263939D03*
X331946D03*
G54D100*G36*
X420228Y48118D02*Y42118D01*
X426228D01*
Y48118D01*
X420228D01*
G37*
G54D103*X423228Y55118D03*
G54D100*G36*
X376921Y48276D02*Y42276D01*
X382921D01*
Y48276D01*
X376921D01*
G37*
G54D103*X379921Y55276D03*
G54D100*G36*
X418417Y162449D02*Y156449D01*
X424417D01*
Y162449D01*
X418417D01*
G37*
G54D103*X411417Y159449D03*
G54D100*G36*
X418260Y119142D02*Y113142D01*
X424260D01*
Y119142D01*
X418260D01*
G37*
G54D103*X411260Y116142D03*
G54D107*X291338Y250394D02*X295275D01*
X309055D02*X312992D01*
X291338Y263780D02*X295275D01*
X309055D02*X312992D01*
X221260Y257087D02*X225197D01*
X238977D02*X242914D01*
X154331D02*X158268D01*
X154331Y270472D02*X158268D01*
X172048Y257087D02*X175985D01*
X172048Y270472D02*X175985D01*
X87402Y257087D02*X91339D01*
X87402Y270472D02*X91339D01*
X105119Y257087D02*X109056D01*
X105119Y270472D02*X109056D01*
G54D108*X418307Y75788D02*X422244D01*
X380906D02*X384843D01*
X418307Y93504D02*X422244D01*
X380906D02*X384843D01*
X418307Y8859D02*X422244D01*
X380906D02*X384843D01*
X418307Y26575D02*X422244D01*
X380906D02*X384843D01*
G54D107*X221260Y270472D02*X225197D01*
X238977D02*X242914D01*
G54D108*X447834Y264764D02*X451771D01*
X410433D02*X414370D01*
X447834Y282480D02*X451771D01*
X410433D02*X414370D01*
X447834Y197835D02*X451771D01*
X410433D02*X414370D01*
X447834Y215551D02*X451771D01*
X410433D02*X414370D01*
X390748Y158464D02*Y154527D01*
Y121063D02*Y117126D01*
X373032Y158464D02*Y154527D01*
Y121063D02*Y117126D01*
X457677Y158464D02*Y154527D01*
Y121063D02*Y117126D01*
X439961Y158464D02*Y154527D01*
Y121063D02*Y117126D01*
G54D103*X27559Y273622D03*
G54D109*X107087Y270472D03*
G54D110*X322835Y42323D03*
Y128937D03*
G54D103*X12795D03*
Y42323D03*
G54D110*X39370Y128937D03*
Y42323D03*
G54D109*X174016Y270472D03*
X240945D03*
X311024Y263780D03*
Y250394D03*
X293307D03*
X240945Y257087D03*
X258858Y256890D03*
X90551Y221457D03*
G54D103*X229331Y214567D03*
G54D109*X101378Y248031D03*
X156299Y257087D03*
G54D103*X79724Y236220D03*
X109252D03*
G54D109*X129527Y232283D03*
X218504Y239173D03*
X231889Y238189D03*
G54D110*G54D111*G54D112*G54D113*G54D111*G54D113*G54D110*G54D112*G54D111*G54D112*G54D111*G54D112*G54D110*G54D114*G54D115*G54D116*G54D114*G54D103*G54D111*G54D114*G54D117*G54D111*G54D114*M02*
