G04 start of page 9 for group -3984 idx -3984 *
G04 Title: (unknown), fab *
G04 Creator: pcb 20140316 *
G04 CreationDate: Tue 28 Aug 2018 07:02:52 AM GMT UTC *
G04 For: cwispell *
G04 Format: Gerber/RS-274X *
G04 PCB-Dimensions (mil): 1692.91 3622.05 *
G04 PCB-Coordinate-Origin: lower left *
%MOIN*%
%FSLAX25Y25*%
%LNFAB*%
%ADD30C,0.0100*%
%ADD29C,0.0075*%
%ADD28C,0.0060*%
%ADD27C,0.0080*%
G54D27*X84646Y15380D02*Y12180D01*
X83046Y13780D02*X86246D01*
X84646Y351009D02*Y347809D01*
X83046Y349409D02*X86246D01*
X41123Y40570D02*X43523Y38170D01*
X41123D02*X43523Y40570D01*
X127737D02*X130137Y38170D01*
X127737D02*X130137Y40570D01*
X127737Y324035D02*X130137Y321635D01*
X127737D02*X130137Y324035D01*
X41123D02*X43523Y321635D01*
X41123D02*X43523Y324035D01*
X13800Y389655D02*X16200Y387255D01*
X13800D02*X16200Y389655D01*
G54D28*X135000Y390705D02*X136500Y387705D01*
X138000Y390705D01*
X136500Y387705D02*Y384705D01*
X139800Y388005D02*X142050D01*
X139800Y384705D02*X142800D01*
X139800Y390705D02*Y384705D01*
Y390705D02*X142800D01*
X147600D02*X148350Y389955D01*
X145350Y390705D02*X147600D01*
X144600Y389955D02*X145350Y390705D01*
X144600Y389955D02*Y388455D01*
X145350Y387705D01*
X147600D01*
X148350Y386955D01*
Y385455D01*
X147600Y384705D02*X148350Y385455D01*
X145350Y384705D02*X147600D01*
X144600Y385455D02*X145350Y384705D01*
X98000Y386955D02*X101000Y390705D01*
X98000Y386955D02*X101750D01*
X101000Y390705D02*Y384705D01*
X15000Y405055D02*Y401855D01*
X13400Y403455D02*X16600D01*
X140000Y405705D02*Y399705D01*
Y405705D02*X143750Y399705D01*
Y405705D02*Y399705D01*
X145550Y404955D02*Y400455D01*
Y404955D02*X146300Y405705D01*
X147800D01*
X148550Y404955D01*
Y400455D01*
X147800Y399705D02*X148550Y400455D01*
X146300Y399705D02*X147800D01*
X145550Y400455D02*X146300Y399705D01*
X98000Y404955D02*X98750Y405705D01*
X101000D01*
X101750Y404955D01*
Y403455D01*
X98000Y399705D02*X101750Y403455D01*
X98000Y399705D02*X101750D01*
X45000Y400455D02*X45750Y399705D01*
X45000Y404955D02*Y400455D01*
Y404955D02*X45750Y405705D01*
X47250D01*
X48000Y404955D01*
Y400455D01*
X47250Y399705D02*X48000Y400455D01*
X45750Y399705D02*X47250D01*
X45000Y401205D02*X48000Y404205D01*
X49800Y399705D02*X50550D01*
X52350Y400455D02*X53100Y399705D01*
X52350Y404955D02*Y400455D01*
Y404955D02*X53100Y405705D01*
X54600D01*
X55350Y404955D01*
Y400455D01*
X54600Y399705D02*X55350Y400455D01*
X53100Y399705D02*X54600D01*
X52350Y401205D02*X55350Y404205D01*
X57900Y399705D02*X60900Y405705D01*
X57150D02*X60900D01*
X63450Y399705D02*X65700Y402705D01*
Y404955D02*Y402705D01*
X64950Y405705D02*X65700Y404955D01*
X63450Y405705D02*X64950D01*
X62700Y404955D02*X63450Y405705D01*
X62700Y404955D02*Y403455D01*
X63450Y402705D01*
X65700D01*
X45000Y385455D02*X45750Y384705D01*
X45000Y389955D02*Y385455D01*
Y389955D02*X45750Y390705D01*
X47250D01*
X48000Y389955D01*
Y385455D01*
X47250Y384705D02*X48000Y385455D01*
X45750Y384705D02*X47250D01*
X45000Y386205D02*X48000Y389205D01*
X49800Y384705D02*X50550D01*
X52350Y385455D02*X53100Y384705D01*
X52350Y389955D02*Y385455D01*
Y389955D02*X53100Y390705D01*
X54600D01*
X55350Y389955D01*
Y385455D01*
X54600Y384705D02*X55350Y385455D01*
X53100Y384705D02*X54600D01*
X52350Y386205D02*X55350Y389205D01*
X57900Y384705D02*X60900Y390705D01*
X57150D02*X60900D01*
X63450Y384705D02*X65700Y387705D01*
Y389955D02*Y387705D01*
X64950Y390705D02*X65700Y389955D01*
X63450Y390705D02*X64950D01*
X62700Y389955D02*X63450Y390705D01*
X62700Y389955D02*Y388455D01*
X63450Y387705D01*
X65700D01*
X128937Y349409D02*Y347809D01*
Y349409D02*X130324Y350209D01*
X128937Y349409D02*X127550Y350209D01*
X42323Y349409D02*Y347809D01*
Y349409D02*X43710Y350209D01*
X42323Y349409D02*X40936Y350209D01*
X15000Y418455D02*Y416855D01*
Y418455D02*X16387Y419255D01*
X15000Y418455D02*X13613Y419255D01*
X135000Y420705D02*X136500Y417705D01*
X138000Y420705D01*
X136500Y417705D02*Y414705D01*
X139800Y418005D02*X142050D01*
X139800Y414705D02*X142800D01*
X139800Y420705D02*Y414705D01*
Y420705D02*X142800D01*
X147600D02*X148350Y419955D01*
X145350Y420705D02*X147600D01*
X144600Y419955D02*X145350Y420705D01*
X144600Y419955D02*Y418455D01*
X145350Y417705D01*
X147600D01*
X148350Y416955D01*
Y415455D01*
X147600Y414705D02*X148350Y415455D01*
X145350Y414705D02*X147600D01*
X144600Y415455D02*X145350Y414705D01*
X98000Y419955D02*X98750Y420705D01*
X101000D01*
X101750Y419955D01*
Y418455D01*
X98000Y414705D02*X101750Y418455D01*
X98000Y414705D02*X101750D01*
X45000Y415455D02*X45750Y414705D01*
X45000Y419955D02*Y415455D01*
Y419955D02*X45750Y420705D01*
X47250D01*
X48000Y419955D01*
Y415455D01*
X47250Y414705D02*X48000Y415455D01*
X45750Y414705D02*X47250D01*
X45000Y416205D02*X48000Y419205D01*
X49800Y414705D02*X50550D01*
X52350Y415455D02*X53100Y414705D01*
X52350Y419955D02*Y415455D01*
Y419955D02*X53100Y420705D01*
X54600D01*
X55350Y419955D01*
Y415455D01*
X54600Y414705D02*X55350Y415455D01*
X53100Y414705D02*X54600D01*
X52350Y416205D02*X55350Y419205D01*
X57150Y419955D02*X57900Y420705D01*
X59400D01*
X60150Y419955D01*
X59400Y414705D02*X60150Y415455D01*
X57900Y414705D02*X59400D01*
X57150Y415455D02*X57900Y414705D01*
Y418005D02*X59400D01*
X60150Y419955D02*Y418755D01*
Y417255D02*Y415455D01*
Y417255D02*X59400Y418005D01*
X60150Y418755D02*X59400Y418005D01*
X61950Y420705D02*X64950D01*
X61950D02*Y417705D01*
X62700Y418455D01*
X64200D01*
X64950Y417705D01*
Y415455D01*
X64200Y414705D02*X64950Y415455D01*
X62700Y414705D02*X64200D01*
X61950Y415455D02*X62700Y414705D01*
X3000Y435705D02*X3750Y434955D01*
X750Y435705D02*X3000D01*
X0Y434955D02*X750Y435705D01*
X0Y434955D02*Y433455D01*
X750Y432705D01*
X3000D01*
X3750Y431955D01*
Y430455D01*
X3000Y429705D02*X3750Y430455D01*
X750Y429705D02*X3000D01*
X0Y430455D02*X750Y429705D01*
X5550Y432705D02*Y430455D01*
X6300Y429705D01*
X8550Y432705D02*Y428205D01*
X7800Y427455D02*X8550Y428205D01*
X6300Y427455D02*X7800D01*
X5550Y428205D02*X6300Y427455D01*
Y429705D02*X7800D01*
X8550Y430455D01*
X11100Y431955D02*Y429705D01*
Y431955D02*X11850Y432705D01*
X12600D01*
X13350Y431955D01*
Y429705D01*
Y431955D02*X14100Y432705D01*
X14850D01*
X15600Y431955D01*
Y429705D01*
X10350Y432705D02*X11100Y431955D01*
X17400Y435705D02*Y429705D01*
Y430455D02*X18150Y429705D01*
X19650D01*
X20400Y430455D01*
Y431955D02*Y430455D01*
X19650Y432705D02*X20400Y431955D01*
X18150Y432705D02*X19650D01*
X17400Y431955D02*X18150Y432705D01*
X22200Y431955D02*Y430455D01*
Y431955D02*X22950Y432705D01*
X24450D01*
X25200Y431955D01*
Y430455D01*
X24450Y429705D02*X25200Y430455D01*
X22950Y429705D02*X24450D01*
X22200Y430455D02*X22950Y429705D01*
X27000Y435705D02*Y430455D01*
X27750Y429705D01*
X0Y427955D02*X29250D01*
X41750Y435705D02*Y429705D01*
X43700Y435705D02*X44750Y434655D01*
Y430755D01*
X43700Y429705D02*X44750Y430755D01*
X41000Y429705D02*X43700D01*
X41000Y435705D02*X43700D01*
G54D29*X46550Y434205D02*Y434055D01*
G54D28*Y431955D02*Y429705D01*
X50300Y432705D02*X51050Y431955D01*
X48800Y432705D02*X50300D01*
X48050Y431955D02*X48800Y432705D01*
X48050Y431955D02*Y430455D01*
X48800Y429705D01*
X51050Y432705D02*Y430455D01*
X51800Y429705D01*
X48800D02*X50300D01*
X51050Y430455D01*
X54350Y431955D02*Y429705D01*
Y431955D02*X55100Y432705D01*
X55850D01*
X56600Y431955D01*
Y429705D01*
Y431955D02*X57350Y432705D01*
X58100D01*
X58850Y431955D01*
Y429705D01*
X53600Y432705D02*X54350Y431955D01*
X60650Y429705D02*X61400D01*
X65900Y430455D02*X66650Y429705D01*
X65900Y434955D02*X66650Y435705D01*
X65900Y434955D02*Y430455D01*
X68450Y435705D02*X69950D01*
X69200D02*Y429705D01*
X68450D02*X69950D01*
X72500Y431955D02*Y429705D01*
Y431955D02*X73250Y432705D01*
X74000D01*
X74750Y431955D01*
Y429705D01*
X71750Y432705D02*X72500Y431955D01*
X77300Y432705D02*X79550D01*
X76550Y431955D02*X77300Y432705D01*
X76550Y431955D02*Y430455D01*
X77300Y429705D01*
X79550D01*
X81350Y435705D02*Y429705D01*
Y431955D02*X82100Y432705D01*
X83600D01*
X84350Y431955D01*
Y429705D01*
X86150Y435705D02*X86900Y434955D01*
Y430455D01*
X86150Y429705D02*X86900Y430455D01*
X41000Y427955D02*X88700D01*
X96050Y429705D02*X98000D01*
X95000Y430755D02*X96050Y429705D01*
X95000Y434655D02*Y430755D01*
Y434655D02*X96050Y435705D01*
X98000D01*
X99800Y431955D02*Y430455D01*
Y431955D02*X100550Y432705D01*
X102050D01*
X102800Y431955D01*
Y430455D01*
X102050Y429705D02*X102800Y430455D01*
X100550Y429705D02*X102050D01*
X99800Y430455D02*X100550Y429705D01*
X104600Y432705D02*Y430455D01*
X105350Y429705D01*
X106850D01*
X107600Y430455D01*
Y432705D02*Y430455D01*
X110150Y431955D02*Y429705D01*
Y431955D02*X110900Y432705D01*
X111650D01*
X112400Y431955D01*
Y429705D01*
X109400Y432705D02*X110150Y431955D01*
X114950Y435705D02*Y430455D01*
X115700Y429705D01*
X114200Y433455D02*X115700D01*
X95000Y427955D02*X117200D01*
X130750Y435705D02*Y429705D01*
X130000Y435705D02*X133000D01*
X133750Y434955D01*
Y433455D01*
X133000Y432705D02*X133750Y433455D01*
X130750Y432705D02*X133000D01*
X135550Y435705D02*Y430455D01*
X136300Y429705D01*
X140050Y432705D02*X140800Y431955D01*
X138550Y432705D02*X140050D01*
X137800Y431955D02*X138550Y432705D01*
X137800Y431955D02*Y430455D01*
X138550Y429705D01*
X140800Y432705D02*Y430455D01*
X141550Y429705D01*
X138550D02*X140050D01*
X140800Y430455D01*
X144100Y435705D02*Y430455D01*
X144850Y429705D01*
X143350Y433455D02*X144850D01*
X147100Y429705D02*X149350D01*
X146350Y430455D02*X147100Y429705D01*
X146350Y431955D02*Y430455D01*
Y431955D02*X147100Y432705D01*
X148600D01*
X149350Y431955D01*
X146350Y431205D02*X149350D01*
Y431955D02*Y431205D01*
X154150Y435705D02*Y429705D01*
X153400D02*X154150Y430455D01*
X151900Y429705D02*X153400D01*
X151150Y430455D02*X151900Y429705D01*
X151150Y431955D02*Y430455D01*
Y431955D02*X151900Y432705D01*
X153400D01*
X154150Y431955D01*
X157450Y432705D02*Y431955D01*
Y430455D02*Y429705D01*
X155950Y434955D02*Y434205D01*
Y434955D02*X156700Y435705D01*
X158200D01*
X158950Y434955D01*
Y434205D01*
X157450Y432705D02*X158950Y434205D01*
X130000Y427955D02*X160750D01*
X0Y450705D02*X3000D01*
X1500D02*Y444705D01*
X4800Y450705D02*Y444705D01*
Y446955D02*X5550Y447705D01*
X7050D01*
X7800Y446955D01*
Y444705D01*
X10350D02*X12600D01*
X9600Y445455D02*X10350Y444705D01*
X9600Y446955D02*Y445455D01*
Y446955D02*X10350Y447705D01*
X11850D01*
X12600Y446955D01*
X9600Y446205D02*X12600D01*
Y446955D02*Y446205D01*
X15150Y446955D02*Y444705D01*
Y446955D02*X15900Y447705D01*
X17400D01*
X14400D02*X15150Y446955D01*
X19950Y444705D02*X22200D01*
X19200Y445455D02*X19950Y444705D01*
X19200Y446955D02*Y445455D01*
Y446955D02*X19950Y447705D01*
X21450D01*
X22200Y446955D01*
X19200Y446205D02*X22200D01*
Y446955D02*Y446205D01*
X28950Y447705D02*X29700Y446955D01*
X27450Y447705D02*X28950D01*
X26700Y446955D02*X27450Y447705D01*
X26700Y446955D02*Y445455D01*
X27450Y444705D01*
X29700Y447705D02*Y445455D01*
X30450Y444705D01*
X27450D02*X28950D01*
X29700Y445455D01*
X33000Y446955D02*Y444705D01*
Y446955D02*X33750Y447705D01*
X35250D01*
X32250D02*X33000Y446955D01*
X37800Y444705D02*X40050D01*
X37050Y445455D02*X37800Y444705D01*
X37050Y446955D02*Y445455D01*
Y446955D02*X37800Y447705D01*
X39300D01*
X40050Y446955D01*
X37050Y446205D02*X40050D01*
Y446955D02*Y446205D01*
X44550Y449955D02*X45300Y450705D01*
X47550D01*
X48300Y449955D01*
Y448455D01*
X44550Y444705D02*X48300Y448455D01*
X44550Y444705D02*X48300D01*
X55800Y450705D02*Y444705D01*
X55050D02*X55800Y445455D01*
X53550Y444705D02*X55050D01*
X52800Y445455D02*X53550Y444705D01*
X52800Y446955D02*Y445455D01*
Y446955D02*X53550Y447705D01*
X55050D01*
X55800Y446955D01*
G54D29*X57600Y449205D02*Y449055D01*
G54D28*Y446955D02*Y444705D01*
X59850Y449955D02*Y444705D01*
Y449955D02*X60600Y450705D01*
X61350D01*
X59100Y447705D02*X60600D01*
X63600Y449955D02*Y444705D01*
Y449955D02*X64350Y450705D01*
X65100D01*
X62850Y447705D02*X64350D01*
X67350Y444705D02*X69600D01*
X66600Y445455D02*X67350Y444705D01*
X66600Y446955D02*Y445455D01*
Y446955D02*X67350Y447705D01*
X68850D01*
X69600Y446955D01*
X66600Y446205D02*X69600D01*
Y446955D02*Y446205D01*
X72150Y446955D02*Y444705D01*
Y446955D02*X72900Y447705D01*
X74400D01*
X71400D02*X72150Y446955D01*
X76950Y444705D02*X79200D01*
X76200Y445455D02*X76950Y444705D01*
X76200Y446955D02*Y445455D01*
Y446955D02*X76950Y447705D01*
X78450D01*
X79200Y446955D01*
X76200Y446205D02*X79200D01*
Y446955D02*Y446205D01*
X81750Y446955D02*Y444705D01*
Y446955D02*X82500Y447705D01*
X83250D01*
X84000Y446955D01*
Y444705D01*
X81000Y447705D02*X81750Y446955D01*
X86550Y450705D02*Y445455D01*
X87300Y444705D01*
X85800Y448455D02*X87300D01*
X94500Y450705D02*Y444705D01*
X93750D02*X94500Y445455D01*
X92250Y444705D02*X93750D01*
X91500Y445455D02*X92250Y444705D01*
X91500Y446955D02*Y445455D01*
Y446955D02*X92250Y447705D01*
X93750D01*
X94500Y446955D01*
X97050D02*Y444705D01*
Y446955D02*X97800Y447705D01*
X99300D01*
X96300D02*X97050Y446955D01*
G54D29*X101100Y449205D02*Y449055D01*
G54D28*Y446955D02*Y444705D01*
X102600Y450705D02*Y445455D01*
X103350Y444705D01*
X104850Y450705D02*Y445455D01*
X105600Y444705D01*
X110550D02*X112800D01*
X113550Y445455D01*
X112800Y446205D02*X113550Y445455D01*
X110550Y446205D02*X112800D01*
X109800Y446955D02*X110550Y446205D01*
X109800Y446955D02*X110550Y447705D01*
X112800D01*
X113550Y446955D01*
X109800Y445455D02*X110550Y444705D01*
G54D29*X115350Y449205D02*Y449055D01*
G54D28*Y446955D02*Y444705D01*
X116850Y447705D02*X119850D01*
X116850Y444705D02*X119850Y447705D01*
X116850Y444705D02*X119850D01*
X122400D02*X124650D01*
X121650Y445455D02*X122400Y444705D01*
X121650Y446955D02*Y445455D01*
Y446955D02*X122400Y447705D01*
X123900D01*
X124650Y446955D01*
X121650Y446205D02*X124650D01*
Y446955D02*Y446205D01*
X127200Y444705D02*X129450D01*
X130200Y445455D01*
X129450Y446205D02*X130200Y445455D01*
X127200Y446205D02*X129450D01*
X126450Y446955D02*X127200Y446205D01*
X126450Y446955D02*X127200Y447705D01*
X129450D01*
X130200Y446955D01*
X126450Y445455D02*X127200Y444705D01*
X134700Y447705D02*Y445455D01*
X135450Y444705D01*
X136950D01*
X137700Y445455D01*
Y447705D02*Y445455D01*
X140250Y444705D02*X142500D01*
X143250Y445455D01*
X142500Y446205D02*X143250Y445455D01*
X140250Y446205D02*X142500D01*
X139500Y446955D02*X140250Y446205D01*
X139500Y446955D02*X140250Y447705D01*
X142500D01*
X143250Y446955D01*
X139500Y445455D02*X140250Y444705D01*
X145800D02*X148050D01*
X145050Y445455D02*X145800Y444705D01*
X145050Y446955D02*Y445455D01*
Y446955D02*X145800Y447705D01*
X147300D01*
X148050Y446955D01*
X145050Y446205D02*X148050D01*
Y446955D02*Y446205D01*
X152850Y450705D02*Y444705D01*
X152100D02*X152850Y445455D01*
X150600Y444705D02*X152100D01*
X149850Y445455D02*X150600Y444705D01*
X149850Y446955D02*Y445455D01*
Y446955D02*X150600Y447705D01*
X152100D01*
X152850Y446955D01*
G54D29*X157350Y449205D02*Y449055D01*
G54D28*Y446955D02*Y444705D01*
X159600Y446955D02*Y444705D01*
Y446955D02*X160350Y447705D01*
X161100D01*
X161850Y446955D01*
Y444705D01*
X158850Y447705D02*X159600Y446955D01*
X167100Y450705D02*Y445455D01*
X167850Y444705D01*
X166350Y448455D02*X167850D01*
X169350Y450705D02*Y444705D01*
Y446955D02*X170100Y447705D01*
X171600D01*
X172350Y446955D01*
Y444705D01*
G54D29*X174150Y449205D02*Y449055D01*
G54D28*Y446955D02*Y444705D01*
X176400D02*X178650D01*
X179400Y445455D01*
X178650Y446205D02*X179400Y445455D01*
X176400Y446205D02*X178650D01*
X175650Y446955D02*X176400Y446205D01*
X175650Y446955D02*X176400Y447705D01*
X178650D01*
X179400Y446955D01*
X175650Y445455D02*X176400Y444705D01*
X183900Y450705D02*Y445455D01*
X184650Y444705D01*
X188400Y447705D02*X189150Y446955D01*
X186900Y447705D02*X188400D01*
X186150Y446955D02*X186900Y447705D01*
X186150Y446955D02*Y445455D01*
X186900Y444705D01*
X189150Y447705D02*Y445455D01*
X189900Y444705D01*
X186900D02*X188400D01*
X189150Y445455D01*
X191700Y447705D02*Y445455D01*
X192450Y444705D01*
X194700Y447705D02*Y443205D01*
X193950Y442455D02*X194700Y443205D01*
X192450Y442455D02*X193950D01*
X191700Y443205D02*X192450Y442455D01*
Y444705D02*X193950D01*
X194700Y445455D01*
X196500Y446955D02*Y445455D01*
Y446955D02*X197250Y447705D01*
X198750D01*
X199500Y446955D01*
Y445455D01*
X198750Y444705D02*X199500Y445455D01*
X197250Y444705D02*X198750D01*
X196500Y445455D02*X197250Y444705D01*
X201300Y447705D02*Y445455D01*
X202050Y444705D01*
X203550D01*
X204300Y445455D01*
Y447705D02*Y445455D01*
X206850Y450705D02*Y445455D01*
X207600Y444705D01*
X206100Y448455D02*X207600D01*
X209100Y443205D02*X210600Y444705D01*
X215100Y445455D02*X215850Y444705D01*
X215100Y446655D02*Y445455D01*
Y446655D02*X216150Y447705D01*
X217050D01*
X218100Y446655D01*
Y445455D01*
X217350Y444705D02*X218100Y445455D01*
X215850Y444705D02*X217350D01*
X215100Y448755D02*X216150Y447705D01*
X215100Y449955D02*Y448755D01*
Y449955D02*X215850Y450705D01*
X217350D01*
X218100Y449955D01*
Y448755D01*
X217050Y447705D02*X218100Y448755D01*
X222600Y450705D02*Y444705D01*
Y446955D02*X223350Y447705D01*
X224850D01*
X225600Y446955D01*
Y444705D01*
X227400Y446955D02*Y445455D01*
Y446955D02*X228150Y447705D01*
X229650D01*
X230400Y446955D01*
Y445455D01*
X229650Y444705D02*X230400Y445455D01*
X228150Y444705D02*X229650D01*
X227400Y445455D02*X228150Y444705D01*
X232200Y450705D02*Y445455D01*
X232950Y444705D01*
X235200D02*X237450D01*
X234450Y445455D02*X235200Y444705D01*
X234450Y446955D02*Y445455D01*
Y446955D02*X235200Y447705D01*
X236700D01*
X237450Y446955D01*
X234450Y446205D02*X237450D01*
Y446955D02*Y446205D01*
X240000Y444705D02*X242250D01*
X243000Y445455D01*
X242250Y446205D02*X243000Y445455D01*
X240000Y446205D02*X242250D01*
X239250Y446955D02*X240000Y446205D01*
X239250Y446955D02*X240000Y447705D01*
X242250D01*
X243000Y446955D01*
X239250Y445455D02*X240000Y444705D01*
X248250Y450705D02*Y445455D01*
X249000Y444705D01*
X247500Y448455D02*X249000D01*
X250500Y446955D02*Y445455D01*
Y446955D02*X251250Y447705D01*
X252750D01*
X253500Y446955D01*
Y445455D01*
X252750Y444705D02*X253500Y445455D01*
X251250Y444705D02*X252750D01*
X250500Y445455D02*X251250Y444705D01*
X256050Y450705D02*Y445455D01*
X256800Y444705D01*
X255300Y448455D02*X256800D01*
X260550Y447705D02*X261300Y446955D01*
X259050Y447705D02*X260550D01*
X258300Y446955D02*X259050Y447705D01*
X258300Y446955D02*Y445455D01*
X259050Y444705D01*
X261300Y447705D02*Y445455D01*
X262050Y444705D01*
X259050D02*X260550D01*
X261300Y445455D01*
X263850Y450705D02*Y445455D01*
X264600Y444705D01*
G54D30*X0Y362205D02*X169291D01*
X0D02*Y0D01*
X169291Y362205D02*Y0D01*
X0D02*X169291D01*
G54D28*X200000Y375705D02*Y369705D01*
Y375705D02*X202250Y372705D01*
X204500Y375705D01*
Y369705D01*
X208550Y372705D02*X209300Y371955D01*
X207050Y372705D02*X208550D01*
X206300Y371955D02*X207050Y372705D01*
X206300Y371955D02*Y370455D01*
X207050Y369705D01*
X209300Y372705D02*Y370455D01*
X210050Y369705D01*
X207050D02*X208550D01*
X209300Y370455D01*
X211850Y372705D02*X214850Y369705D01*
X211850D02*X214850Y372705D01*
G54D29*X216650Y374205D02*Y374055D01*
G54D28*Y371955D02*Y369705D01*
X218900Y371955D02*Y369705D01*
Y371955D02*X219650Y372705D01*
X220400D01*
X221150Y371955D01*
Y369705D01*
Y371955D02*X221900Y372705D01*
X222650D01*
X223400Y371955D01*
Y369705D01*
X218150Y372705D02*X218900Y371955D01*
X225200Y372705D02*Y370455D01*
X225950Y369705D01*
X227450D01*
X228200Y370455D01*
Y372705D02*Y370455D01*
X230750Y371955D02*Y369705D01*
Y371955D02*X231500Y372705D01*
X232250D01*
X233000Y371955D01*
Y369705D01*
Y371955D02*X233750Y372705D01*
X234500D01*
X235250Y371955D01*
Y369705D01*
X230000Y372705D02*X230750Y371955D01*
X240500Y375705D02*Y369705D01*
X242450Y375705D02*X243500Y374655D01*
Y370755D01*
X242450Y369705D02*X243500Y370755D01*
X239750Y369705D02*X242450D01*
X239750Y375705D02*X242450D01*
G54D29*X245300Y374205D02*Y374055D01*
G54D28*Y371955D02*Y369705D01*
X247550Y371955D02*Y369705D01*
Y371955D02*X248300Y372705D01*
X249050D01*
X249800Y371955D01*
Y369705D01*
Y371955D02*X250550Y372705D01*
X251300D01*
X252050Y371955D01*
Y369705D01*
X246800Y372705D02*X247550Y371955D01*
X254600Y369705D02*X256850D01*
X253850Y370455D02*X254600Y369705D01*
X253850Y371955D02*Y370455D01*
Y371955D02*X254600Y372705D01*
X256100D01*
X256850Y371955D01*
X253850Y371205D02*X256850D01*
Y371955D02*Y371205D01*
X259400Y371955D02*Y369705D01*
Y371955D02*X260150Y372705D01*
X260900D01*
X261650Y371955D01*
Y369705D01*
X258650Y372705D02*X259400Y371955D01*
X264200Y369705D02*X266450D01*
X267200Y370455D01*
X266450Y371205D02*X267200Y370455D01*
X264200Y371205D02*X266450D01*
X263450Y371955D02*X264200Y371205D01*
X263450Y371955D02*X264200Y372705D01*
X266450D01*
X267200Y371955D01*
X263450Y370455D02*X264200Y369705D01*
G54D29*X269000Y374205D02*Y374055D01*
G54D28*Y371955D02*Y369705D01*
X270500Y371955D02*Y370455D01*
Y371955D02*X271250Y372705D01*
X272750D01*
X273500Y371955D01*
Y370455D01*
X272750Y369705D02*X273500Y370455D01*
X271250Y369705D02*X272750D01*
X270500Y370455D02*X271250Y369705D01*
X276050Y371955D02*Y369705D01*
Y371955D02*X276800Y372705D01*
X277550D01*
X278300Y371955D01*
Y369705D01*
X275300Y372705D02*X276050Y371955D01*
X280850Y369705D02*X283100D01*
X283850Y370455D01*
X283100Y371205D02*X283850Y370455D01*
X280850Y371205D02*X283100D01*
X280100Y371955D02*X280850Y371205D01*
X280100Y371955D02*X280850Y372705D01*
X283100D01*
X283850Y371955D01*
X280100Y370455D02*X280850Y369705D01*
X285650Y373455D02*X286400D01*
X285650Y371955D02*X286400D01*
X290900Y374505D02*X292100Y375705D01*
Y369705D01*
X290900D02*X293150D01*
X297200Y375705D02*X297950Y374955D01*
X295700Y375705D02*X297200D01*
X294950Y374955D02*X295700Y375705D01*
X294950Y374955D02*Y370455D01*
X295700Y369705D01*
X297200Y373005D02*X297950Y372255D01*
X294950Y373005D02*X297200D01*
X295700Y369705D02*X297200D01*
X297950Y370455D01*
Y372255D02*Y370455D01*
X300500Y369705D02*X302750Y372705D01*
Y374955D02*Y372705D01*
X302000Y375705D02*X302750Y374955D01*
X300500Y375705D02*X302000D01*
X299750Y374955D02*X300500Y375705D01*
X299750Y374955D02*Y373455D01*
X300500Y372705D01*
X302750D01*
X304550Y374955D02*X305300Y375705D01*
X307550D01*
X308300Y374955D01*
Y373455D01*
X304550Y369705D02*X308300Y373455D01*
X304550Y369705D02*X308300D01*
X310100D02*X310850D01*
X313400D02*X315650Y372705D01*
Y374955D02*Y372705D01*
X314900Y375705D02*X315650Y374955D01*
X313400Y375705D02*X314900D01*
X312650Y374955D02*X313400Y375705D01*
X312650Y374955D02*Y373455D01*
X313400Y372705D01*
X315650D01*
X317450Y374505D02*X318650Y375705D01*
Y369705D01*
X317450D02*X319700D01*
X321500Y374955D02*X322250Y375705D01*
X323750D01*
X324500Y374955D01*
X323750Y369705D02*X324500Y370455D01*
X322250Y369705D02*X323750D01*
X321500Y370455D02*X322250Y369705D01*
Y373005D02*X323750D01*
X324500Y374955D02*Y373755D01*
Y372255D02*Y370455D01*
Y372255D02*X323750Y373005D01*
X324500Y373755D02*X323750Y373005D01*
X326300Y374955D02*X327050Y375705D01*
X328550D01*
X329300Y374955D01*
X328550Y369705D02*X329300Y370455D01*
X327050Y369705D02*X328550D01*
X326300Y370455D02*X327050Y369705D01*
Y373005D02*X328550D01*
X329300Y374955D02*Y373755D01*
Y372255D02*Y370455D01*
Y372255D02*X328550Y373005D01*
X329300Y373755D02*X328550Y373005D01*
X331100Y370455D02*X331850Y369705D01*
X331100Y371655D02*Y370455D01*
Y371655D02*X332150Y372705D01*
X333050D01*
X334100Y371655D01*
Y370455D01*
X333350Y369705D02*X334100Y370455D01*
X331850Y369705D02*X333350D01*
X331100Y373755D02*X332150Y372705D01*
X331100Y374955D02*Y373755D01*
Y374955D02*X331850Y375705D01*
X333350D01*
X334100Y374955D01*
Y373755D01*
X333050Y372705D02*X334100Y373755D01*
X338150Y375705D02*X338900Y374955D01*
X336650Y375705D02*X338150D01*
X335900Y374955D02*X336650Y375705D01*
X335900Y374955D02*Y370455D01*
X336650Y369705D01*
X338150Y373005D02*X338900Y372255D01*
X335900Y373005D02*X338150D01*
X336650Y369705D02*X338150D01*
X338900Y370455D01*
Y372255D02*Y370455D01*
X344150Y371955D02*Y369705D01*
Y371955D02*X344900Y372705D01*
X345650D01*
X346400Y371955D01*
Y369705D01*
Y371955D02*X347150Y372705D01*
X347900D01*
X348650Y371955D01*
Y369705D01*
X343400Y372705D02*X344150Y371955D01*
G54D29*X350450Y374205D02*Y374055D01*
G54D28*Y371955D02*Y369705D01*
X351950Y375705D02*Y370455D01*
X352700Y369705D01*
X354950D02*X357200D01*
X357950Y370455D01*
X357200Y371205D02*X357950Y370455D01*
X354950Y371205D02*X357200D01*
X354200Y371955D02*X354950Y371205D01*
X354200Y371955D02*X354950Y372705D01*
X357200D01*
X357950Y371955D01*
X354200Y370455D02*X354950Y369705D01*
X362450Y372705D02*Y370455D01*
X363200Y369705D01*
X363950D01*
X364700Y370455D01*
Y372705D02*Y370455D01*
X365450Y369705D01*
X366200D01*
X366950Y370455D01*
Y372705D02*Y370455D01*
G54D29*X368750Y374205D02*Y374055D01*
G54D28*Y371955D02*Y369705D01*
X373250Y375705D02*Y369705D01*
X372500D02*X373250Y370455D01*
X371000Y369705D02*X372500D01*
X370250Y370455D02*X371000Y369705D01*
X370250Y371955D02*Y370455D01*
Y371955D02*X371000Y372705D01*
X372500D01*
X373250Y371955D01*
X375800Y369705D02*X378050D01*
X375050Y370455D02*X375800Y369705D01*
X375050Y371955D02*Y370455D01*
Y371955D02*X375800Y372705D01*
X377300D01*
X378050Y371955D01*
X375050Y371205D02*X378050D01*
Y371955D02*Y371205D01*
X379850Y368205D02*X381350Y369705D01*
X385850Y374955D02*X386600Y375705D01*
X388100D01*
X388850Y374955D01*
X388100Y369705D02*X388850Y370455D01*
X386600Y369705D02*X388100D01*
X385850Y370455D02*X386600Y369705D01*
Y373005D02*X388100D01*
X388850Y374955D02*Y373755D01*
Y372255D02*Y370455D01*
Y372255D02*X388100Y373005D01*
X388850Y373755D02*X388100Y373005D01*
X392900Y375705D02*X393650Y374955D01*
X391400Y375705D02*X392900D01*
X390650Y374955D02*X391400Y375705D01*
X390650Y374955D02*Y370455D01*
X391400Y369705D01*
X392900Y373005D02*X393650Y372255D01*
X390650Y373005D02*X392900D01*
X391400Y369705D02*X392900D01*
X393650Y370455D01*
Y372255D02*Y370455D01*
X395450Y374955D02*X396200Y375705D01*
X398450D01*
X399200Y374955D01*
Y373455D01*
X395450Y369705D02*X399200Y373455D01*
X395450Y369705D02*X399200D01*
X401000Y374955D02*X401750Y375705D01*
X404000D01*
X404750Y374955D01*
Y373455D01*
X401000Y369705D02*X404750Y373455D01*
X401000Y369705D02*X404750D01*
X406550D02*X407300D01*
X409100Y370455D02*X409850Y369705D01*
X409100Y374955D02*Y370455D01*
Y374955D02*X409850Y375705D01*
X411350D01*
X412100Y374955D01*
Y370455D01*
X411350Y369705D02*X412100Y370455D01*
X409850Y369705D02*X411350D01*
X409100Y371205D02*X412100Y374205D01*
X413900Y371955D02*X416900Y375705D01*
X413900Y371955D02*X417650D01*
X416900Y375705D02*Y369705D01*
X420200D02*X423200Y375705D01*
X419450D02*X423200D01*
X425000Y374955D02*X425750Y375705D01*
X428000D01*
X428750Y374955D01*
Y373455D01*
X425000Y369705D02*X428750Y373455D01*
X425000Y369705D02*X428750D01*
X430550Y371955D02*X433550Y375705D01*
X430550Y371955D02*X434300D01*
X433550Y375705D02*Y369705D01*
X436100Y371955D02*X439100Y375705D01*
X436100Y371955D02*X439850D01*
X439100Y375705D02*Y369705D01*
X445100Y371955D02*Y369705D01*
Y371955D02*X445850Y372705D01*
X446600D01*
X447350Y371955D01*
Y369705D01*
Y371955D02*X448100Y372705D01*
X448850D01*
X449600Y371955D01*
Y369705D01*
X444350Y372705D02*X445100Y371955D01*
G54D29*X451400Y374205D02*Y374055D01*
G54D28*Y371955D02*Y369705D01*
X452900Y375705D02*Y370455D01*
X453650Y369705D01*
X455900D02*X458150D01*
X458900Y370455D01*
X458150Y371205D02*X458900Y370455D01*
X455900Y371205D02*X458150D01*
X455150Y371955D02*X455900Y371205D01*
X455150Y371955D02*X455900Y372705D01*
X458150D01*
X458900Y371955D01*
X455150Y370455D02*X455900Y369705D01*
X463400Y375705D02*Y369705D01*
Y371955D02*X464150Y372705D01*
X465650D01*
X466400Y371955D01*
Y369705D01*
G54D29*X468200Y374205D02*Y374055D01*
G54D28*Y371955D02*Y369705D01*
X471950Y372705D02*X472700Y371955D01*
X470450Y372705D02*X471950D01*
X469700Y371955D02*X470450Y372705D01*
X469700Y371955D02*Y370455D01*
X470450Y369705D01*
X471950D01*
X472700Y370455D01*
X469700Y368205D02*X470450Y367455D01*
X471950D01*
X472700Y368205D01*
Y372705D02*Y368205D01*
X474500Y375705D02*Y369705D01*
Y371955D02*X475250Y372705D01*
X476750D01*
X477500Y371955D01*
Y369705D01*
X0Y-9500D02*X3000D01*
X3750Y-8750D01*
Y-6950D02*Y-8750D01*
X3000Y-6200D02*X3750Y-6950D01*
X750Y-6200D02*X3000D01*
X750Y-3500D02*Y-9500D01*
X0Y-3500D02*X3000D01*
X3750Y-4250D01*
Y-5450D01*
X3000Y-6200D02*X3750Y-5450D01*
X5550Y-7250D02*Y-8750D01*
Y-7250D02*X6300Y-6500D01*
X7800D01*
X8550Y-7250D01*
Y-8750D01*
X7800Y-9500D02*X8550Y-8750D01*
X6300Y-9500D02*X7800D01*
X5550Y-8750D02*X6300Y-9500D01*
X12600Y-6500D02*X13350Y-7250D01*
X11100Y-6500D02*X12600D01*
X10350Y-7250D02*X11100Y-6500D01*
X10350Y-7250D02*Y-8750D01*
X11100Y-9500D01*
X13350Y-6500D02*Y-8750D01*
X14100Y-9500D01*
X11100D02*X12600D01*
X13350Y-8750D01*
X16650Y-7250D02*Y-9500D01*
Y-7250D02*X17400Y-6500D01*
X18900D01*
X15900D02*X16650Y-7250D01*
X23700Y-3500D02*Y-9500D01*
X22950D02*X23700Y-8750D01*
X21450Y-9500D02*X22950D01*
X20700Y-8750D02*X21450Y-9500D01*
X20700Y-7250D02*Y-8750D01*
Y-7250D02*X21450Y-6500D01*
X22950D01*
X23700Y-7250D01*
X28200D02*Y-8750D01*
Y-7250D02*X28950Y-6500D01*
X30450D01*
X31200Y-7250D01*
Y-8750D01*
X30450Y-9500D02*X31200Y-8750D01*
X28950Y-9500D02*X30450D01*
X28200Y-8750D02*X28950Y-9500D01*
X33000Y-6500D02*Y-8750D01*
X33750Y-9500D01*
X35250D01*
X36000Y-8750D01*
Y-6500D02*Y-8750D01*
X38550Y-3500D02*Y-8750D01*
X39300Y-9500D01*
X37800Y-5750D02*X39300D01*
X40800Y-3500D02*Y-8750D01*
X41550Y-9500D01*
G54D29*X43050Y-5000D02*Y-5150D01*
G54D28*Y-7250D02*Y-9500D01*
X45300Y-7250D02*Y-9500D01*
Y-7250D02*X46050Y-6500D01*
X46800D01*
X47550Y-7250D01*
Y-9500D01*
X44550Y-6500D02*X45300Y-7250D01*
X50100Y-9500D02*X52350D01*
X49350Y-8750D02*X50100Y-9500D01*
X49350Y-7250D02*Y-8750D01*
Y-7250D02*X50100Y-6500D01*
X51600D01*
X52350Y-7250D01*
X49350Y-8000D02*X52350D01*
Y-7250D02*Y-8000D01*
G54D29*X56850Y-5000D02*Y-5150D01*
G54D28*Y-7250D02*Y-9500D01*
X59100D02*X61350D01*
X62100Y-8750D01*
X61350Y-8000D02*X62100Y-8750D01*
X59100Y-8000D02*X61350D01*
X58350Y-7250D02*X59100Y-8000D01*
X58350Y-7250D02*X59100Y-6500D01*
X61350D01*
X62100Y-7250D01*
X58350Y-8750D02*X59100Y-9500D01*
X67350Y-3500D02*Y-8750D01*
X68100Y-9500D01*
X66600Y-5750D02*X68100D01*
X69600Y-3500D02*Y-9500D01*
Y-7250D02*X70350Y-6500D01*
X71850D01*
X72600Y-7250D01*
Y-9500D01*
X75150D02*X77400D01*
X74400Y-8750D02*X75150Y-9500D01*
X74400Y-7250D02*Y-8750D01*
Y-7250D02*X75150Y-6500D01*
X76650D01*
X77400Y-7250D01*
X74400Y-8000D02*X77400D01*
Y-7250D02*Y-8000D01*
X82650Y-6500D02*X84900D01*
X81900Y-7250D02*X82650Y-6500D01*
X81900Y-7250D02*Y-8750D01*
X82650Y-9500D01*
X84900D01*
X87450D02*X89700D01*
X86700Y-8750D02*X87450Y-9500D01*
X86700Y-7250D02*Y-8750D01*
Y-7250D02*X87450Y-6500D01*
X88950D01*
X89700Y-7250D01*
X86700Y-8000D02*X89700D01*
Y-7250D02*Y-8000D01*
X92250Y-7250D02*Y-9500D01*
Y-7250D02*X93000Y-6500D01*
X93750D01*
X94500Y-7250D01*
Y-9500D01*
X91500Y-6500D02*X92250Y-7250D01*
X97050Y-3500D02*Y-8750D01*
X97800Y-9500D01*
X96300Y-5750D02*X97800D01*
X100050Y-9500D02*X102300D01*
X99300Y-8750D02*X100050Y-9500D01*
X99300Y-7250D02*Y-8750D01*
Y-7250D02*X100050Y-6500D01*
X101550D01*
X102300Y-7250D01*
X99300Y-8000D02*X102300D01*
Y-7250D02*Y-8000D01*
X104850Y-7250D02*Y-9500D01*
Y-7250D02*X105600Y-6500D01*
X107100D01*
X104100D02*X104850Y-7250D01*
X108900Y-3500D02*Y-8750D01*
X109650Y-9500D01*
G54D29*X111150Y-5000D02*Y-5150D01*
G54D28*Y-7250D02*Y-9500D01*
X113400Y-7250D02*Y-9500D01*
Y-7250D02*X114150Y-6500D01*
X114900D01*
X115650Y-7250D01*
Y-9500D01*
X112650Y-6500D02*X113400Y-7250D01*
X118200Y-9500D02*X120450D01*
X117450Y-8750D02*X118200Y-9500D01*
X117450Y-7250D02*Y-8750D01*
Y-7250D02*X118200Y-6500D01*
X119700D01*
X120450Y-7250D01*
X117450Y-8000D02*X120450D01*
Y-7250D02*Y-8000D01*
X124950Y-7250D02*Y-8750D01*
Y-7250D02*X125700Y-6500D01*
X127200D01*
X127950Y-7250D01*
Y-8750D01*
X127200Y-9500D02*X127950Y-8750D01*
X125700Y-9500D02*X127200D01*
X124950Y-8750D02*X125700Y-9500D01*
X130500Y-4250D02*Y-9500D01*
Y-4250D02*X131250Y-3500D01*
X132000D01*
X129750Y-6500D02*X131250D01*
X136950Y-3500D02*Y-8750D01*
X137700Y-9500D01*
X136200Y-5750D02*X137700D01*
X139200Y-3500D02*Y-9500D01*
Y-7250D02*X139950Y-6500D01*
X141450D01*
X142200Y-7250D01*
Y-9500D01*
G54D29*X144000Y-5000D02*Y-5150D01*
G54D28*Y-7250D02*Y-9500D01*
X146250D02*X148500D01*
X149250Y-8750D01*
X148500Y-8000D02*X149250Y-8750D01*
X146250Y-8000D02*X148500D01*
X145500Y-7250D02*X146250Y-8000D01*
X145500Y-7250D02*X146250Y-6500D01*
X148500D01*
X149250Y-7250D01*
X145500Y-8750D02*X146250Y-9500D01*
X153750Y-8750D02*X154500Y-9500D01*
X153750Y-7550D02*Y-8750D01*
Y-7550D02*X154800Y-6500D01*
X155700D01*
X156750Y-7550D01*
Y-8750D01*
X156000Y-9500D02*X156750Y-8750D01*
X154500Y-9500D02*X156000D01*
X153750Y-5450D02*X154800Y-6500D01*
X153750Y-4250D02*Y-5450D01*
Y-4250D02*X154500Y-3500D01*
X156000D01*
X156750Y-4250D01*
Y-5450D01*
X155700Y-6500D02*X156750Y-5450D01*
X158550Y-9500D02*X159300D01*
X161100Y-8750D02*X161850Y-9500D01*
X161100Y-4250D02*Y-8750D01*
Y-4250D02*X161850Y-3500D01*
X163350D01*
X164100Y-4250D01*
Y-8750D01*
X163350Y-9500D02*X164100Y-8750D01*
X161850Y-9500D02*X163350D01*
X161100Y-8000D02*X164100Y-5000D01*
X165900Y-8750D02*X166650Y-9500D01*
X165900Y-4250D02*Y-8750D01*
Y-4250D02*X166650Y-3500D01*
X168150D01*
X168900Y-4250D01*
Y-8750D01*
X168150Y-9500D02*X168900Y-8750D01*
X166650Y-9500D02*X168150D01*
X165900Y-8000D02*X168900Y-5000D01*
X170700Y-8750D02*X171450Y-9500D01*
X170700Y-4250D02*Y-8750D01*
Y-4250D02*X171450Y-3500D01*
X172950D01*
X173700Y-4250D01*
Y-8750D01*
X172950Y-9500D02*X173700Y-8750D01*
X171450Y-9500D02*X172950D01*
X170700Y-8000D02*X173700Y-5000D01*
X175500Y-8750D02*X176250Y-9500D01*
X175500Y-4250D02*Y-8750D01*
Y-4250D02*X176250Y-3500D01*
X177750D01*
X178500Y-4250D01*
Y-8750D01*
X177750Y-9500D02*X178500Y-8750D01*
X176250Y-9500D02*X177750D01*
X175500Y-8000D02*X178500Y-5000D01*
X180300Y-8750D02*X181050Y-9500D01*
X180300Y-4250D02*Y-8750D01*
Y-4250D02*X181050Y-3500D01*
X182550D01*
X183300Y-4250D01*
Y-8750D01*
X182550Y-9500D02*X183300Y-8750D01*
X181050Y-9500D02*X182550D01*
X180300Y-8000D02*X183300Y-5000D01*
X185100Y-8750D02*X185850Y-9500D01*
X185100Y-4250D02*Y-8750D01*
Y-4250D02*X185850Y-3500D01*
X187350D01*
X188100Y-4250D01*
Y-8750D01*
X187350Y-9500D02*X188100Y-8750D01*
X185850Y-9500D02*X187350D01*
X185100Y-8000D02*X188100Y-5000D01*
X193350Y-7250D02*Y-9500D01*
Y-7250D02*X194100Y-6500D01*
X194850D01*
X195600Y-7250D01*
Y-9500D01*
Y-7250D02*X196350Y-6500D01*
X197100D01*
X197850Y-7250D01*
Y-9500D01*
X192600Y-6500D02*X193350Y-7250D01*
G54D29*X199650Y-5000D02*Y-5150D01*
G54D28*Y-7250D02*Y-9500D01*
X201150Y-3500D02*Y-8750D01*
X201900Y-9500D01*
X206850Y-7250D02*Y-9500D01*
Y-7250D02*X207600Y-6500D01*
X209100D01*
X206100D02*X206850Y-7250D01*
X211650Y-9500D02*X213900D01*
X210900Y-8750D02*X211650Y-9500D01*
X210900Y-7250D02*Y-8750D01*
Y-7250D02*X211650Y-6500D01*
X213150D01*
X213900Y-7250D01*
X210900Y-8000D02*X213900D01*
Y-7250D02*Y-8000D01*
X216450Y-6500D02*X218700D01*
X215700Y-7250D02*X216450Y-6500D01*
X215700Y-7250D02*Y-8750D01*
X216450Y-9500D01*
X218700D01*
X221250Y-3500D02*Y-8750D01*
X222000Y-9500D01*
X220500Y-5750D02*X222000D01*
X225750Y-6500D02*X226500Y-7250D01*
X224250Y-6500D02*X225750D01*
X223500Y-7250D02*X224250Y-6500D01*
X223500Y-7250D02*Y-8750D01*
X224250Y-9500D01*
X226500Y-6500D02*Y-8750D01*
X227250Y-9500D01*
X224250D02*X225750D01*
X226500Y-8750D01*
X229800Y-7250D02*Y-9500D01*
Y-7250D02*X230550Y-6500D01*
X231300D01*
X232050Y-7250D01*
Y-9500D01*
X229050Y-6500D02*X229800Y-7250D01*
X236100Y-6500D02*X236850Y-7250D01*
X234600Y-6500D02*X236100D01*
X233850Y-7250D02*X234600Y-6500D01*
X233850Y-7250D02*Y-8750D01*
X234600Y-9500D01*
X236100D01*
X236850Y-8750D01*
X233850Y-11000D02*X234600Y-11750D01*
X236100D01*
X236850Y-11000D01*
Y-6500D02*Y-11000D01*
X238650Y-3500D02*Y-8750D01*
X239400Y-9500D01*
X241650D02*X243900D01*
X240900Y-8750D02*X241650Y-9500D01*
X240900Y-7250D02*Y-8750D01*
Y-7250D02*X241650Y-6500D01*
X243150D01*
X243900Y-7250D01*
X240900Y-8000D02*X243900D01*
Y-7250D02*Y-8000D01*
X248400Y-6500D02*X251400D01*
X255900Y-8750D02*X256650Y-9500D01*
X255900Y-4250D02*Y-8750D01*
Y-4250D02*X256650Y-3500D01*
X258150D01*
X258900Y-4250D01*
Y-8750D01*
X258150Y-9500D02*X258900Y-8750D01*
X256650Y-9500D02*X258150D01*
X255900Y-8000D02*X258900Y-5000D01*
X260700Y-11000D02*X262200Y-9500D01*
X264000Y-8750D02*X264750Y-9500D01*
X264000Y-4250D02*Y-8750D01*
Y-4250D02*X264750Y-3500D01*
X266250D01*
X267000Y-4250D01*
Y-8750D01*
X266250Y-9500D02*X267000Y-8750D01*
X264750Y-9500D02*X266250D01*
X264000Y-8000D02*X267000Y-5000D01*
X272250Y-3500D02*Y-8750D01*
X273000Y-9500D01*
X271500Y-5750D02*X273000D01*
X274500Y-7250D02*Y-8750D01*
Y-7250D02*X275250Y-6500D01*
X276750D01*
X277500Y-7250D01*
Y-8750D01*
X276750Y-9500D02*X277500Y-8750D01*
X275250Y-9500D02*X276750D01*
X274500Y-8750D02*X275250Y-9500D01*
X282000Y-4700D02*X283200Y-3500D01*
Y-9500D01*
X282000D02*X284250D01*
X288300Y-3500D02*X289050Y-4250D01*
X286800Y-3500D02*X288300D01*
X286050Y-4250D02*X286800Y-3500D01*
X286050Y-4250D02*Y-8750D01*
X286800Y-9500D01*
X288300Y-6200D02*X289050Y-6950D01*
X286050Y-6200D02*X288300D01*
X286800Y-9500D02*X288300D01*
X289050Y-8750D01*
Y-6950D02*Y-8750D01*
X291600Y-9500D02*X293850Y-6500D01*
Y-4250D02*Y-6500D01*
X293100Y-3500D02*X293850Y-4250D01*
X291600Y-3500D02*X293100D01*
X290850Y-4250D02*X291600Y-3500D01*
X290850Y-4250D02*Y-5750D01*
X291600Y-6500D01*
X293850D01*
X295650Y-4250D02*X296400Y-3500D01*
X298650D01*
X299400Y-4250D01*
Y-5750D01*
X295650Y-9500D02*X299400Y-5750D01*
X295650Y-9500D02*X299400D01*
X301200D02*X301950D01*
X304500D02*X306750Y-6500D01*
Y-4250D02*Y-6500D01*
X306000Y-3500D02*X306750Y-4250D01*
X304500Y-3500D02*X306000D01*
X303750Y-4250D02*X304500Y-3500D01*
X303750Y-4250D02*Y-5750D01*
X304500Y-6500D01*
X306750D01*
X308550Y-4700D02*X309750Y-3500D01*
Y-9500D01*
X308550D02*X310800D01*
X312600Y-4250D02*X313350Y-3500D01*
X314850D01*
X315600Y-4250D01*
X314850Y-9500D02*X315600Y-8750D01*
X313350Y-9500D02*X314850D01*
X312600Y-8750D02*X313350Y-9500D01*
Y-6200D02*X314850D01*
X315600Y-4250D02*Y-5450D01*
Y-6950D02*Y-8750D01*
Y-6950D02*X314850Y-6200D01*
X315600Y-5450D02*X314850Y-6200D01*
X317400Y-4250D02*X318150Y-3500D01*
X319650D01*
X320400Y-4250D01*
X319650Y-9500D02*X320400Y-8750D01*
X318150Y-9500D02*X319650D01*
X317400Y-8750D02*X318150Y-9500D01*
Y-6200D02*X319650D01*
X320400Y-4250D02*Y-5450D01*
Y-6950D02*Y-8750D01*
Y-6950D02*X319650Y-6200D01*
X320400Y-5450D02*X319650Y-6200D01*
X322200Y-8750D02*X322950Y-9500D01*
X322200Y-7550D02*Y-8750D01*
Y-7550D02*X323250Y-6500D01*
X324150D01*
X325200Y-7550D01*
Y-8750D01*
X324450Y-9500D02*X325200Y-8750D01*
X322950Y-9500D02*X324450D01*
X322200Y-5450D02*X323250Y-6500D01*
X322200Y-4250D02*Y-5450D01*
Y-4250D02*X322950Y-3500D01*
X324450D01*
X325200Y-4250D01*
Y-5450D01*
X324150Y-6500D02*X325200Y-5450D01*
X329250Y-3500D02*X330000Y-4250D01*
X327750Y-3500D02*X329250D01*
X327000Y-4250D02*X327750Y-3500D01*
X327000Y-4250D02*Y-8750D01*
X327750Y-9500D01*
X329250Y-6200D02*X330000Y-6950D01*
X327000Y-6200D02*X329250D01*
X327750Y-9500D02*X329250D01*
X330000Y-8750D01*
Y-6950D02*Y-8750D01*
X331800Y-11000D02*X333300Y-9500D01*
X335100Y-4250D02*X335850Y-3500D01*
X337350D01*
X338100Y-4250D01*
X337350Y-9500D02*X338100Y-8750D01*
X335850Y-9500D02*X337350D01*
X335100Y-8750D02*X335850Y-9500D01*
Y-6200D02*X337350D01*
X338100Y-4250D02*Y-5450D01*
Y-6950D02*Y-8750D01*
Y-6950D02*X337350Y-6200D01*
X338100Y-5450D02*X337350Y-6200D01*
X342150Y-3500D02*X342900Y-4250D01*
X340650Y-3500D02*X342150D01*
X339900Y-4250D02*X340650Y-3500D01*
X339900Y-4250D02*Y-8750D01*
X340650Y-9500D01*
X342150Y-6200D02*X342900Y-6950D01*
X339900Y-6200D02*X342150D01*
X340650Y-9500D02*X342150D01*
X342900Y-8750D01*
Y-6950D02*Y-8750D01*
X344700Y-4250D02*X345450Y-3500D01*
X347700D01*
X348450Y-4250D01*
Y-5750D01*
X344700Y-9500D02*X348450Y-5750D01*
X344700Y-9500D02*X348450D01*
X350250Y-4250D02*X351000Y-3500D01*
X353250D01*
X354000Y-4250D01*
Y-5750D01*
X350250Y-9500D02*X354000Y-5750D01*
X350250Y-9500D02*X354000D01*
X355800D02*X356550D01*
X358350Y-8750D02*X359100Y-9500D01*
X358350Y-4250D02*Y-8750D01*
Y-4250D02*X359100Y-3500D01*
X360600D01*
X361350Y-4250D01*
Y-8750D01*
X360600Y-9500D02*X361350Y-8750D01*
X359100Y-9500D02*X360600D01*
X358350Y-8000D02*X361350Y-5000D01*
X363150Y-7250D02*X366150Y-3500D01*
X363150Y-7250D02*X366900D01*
X366150Y-3500D02*Y-9500D01*
X369450D02*X372450Y-3500D01*
X368700D02*X372450D01*
X374250Y-4250D02*X375000Y-3500D01*
X377250D01*
X378000Y-4250D01*
Y-5750D01*
X374250Y-9500D02*X378000Y-5750D01*
X374250Y-9500D02*X378000D01*
X379800Y-7250D02*X382800Y-3500D01*
X379800Y-7250D02*X383550D01*
X382800Y-3500D02*Y-9500D01*
X385350Y-7250D02*X388350Y-3500D01*
X385350Y-7250D02*X389100D01*
X388350Y-3500D02*Y-9500D01*
X394350Y-7250D02*Y-9500D01*
Y-7250D02*X395100Y-6500D01*
X395850D01*
X396600Y-7250D01*
Y-9500D01*
Y-7250D02*X397350Y-6500D01*
X398100D01*
X398850Y-7250D01*
Y-9500D01*
X393600Y-6500D02*X394350Y-7250D01*
G54D29*X400650Y-5000D02*Y-5150D01*
G54D28*Y-7250D02*Y-9500D01*
X402150Y-3500D02*Y-8750D01*
X402900Y-9500D01*
X405150D02*X407400D01*
X408150Y-8750D01*
X407400Y-8000D02*X408150Y-8750D01*
X405150Y-8000D02*X407400D01*
X404400Y-7250D02*X405150Y-8000D01*
X404400Y-7250D02*X405150Y-6500D01*
X407400D01*
X408150Y-7250D01*
X404400Y-8750D02*X405150Y-9500D01*
X200750Y390705D02*Y384705D01*
X202700Y390705D02*X203750Y389655D01*
Y385755D01*
X202700Y384705D02*X203750Y385755D01*
X200000Y384705D02*X202700D01*
X200000Y390705D02*X202700D01*
X207800Y387705D02*X208550Y386955D01*
X206300Y387705D02*X207800D01*
X205550Y386955D02*X206300Y387705D01*
X205550Y386955D02*Y385455D01*
X206300Y384705D01*
X208550Y387705D02*Y385455D01*
X209300Y384705D01*
X206300D02*X207800D01*
X208550Y385455D01*
X211850Y390705D02*Y385455D01*
X212600Y384705D01*
X211100Y388455D02*X212600D01*
X214850Y384705D02*X217100D01*
X214100Y385455D02*X214850Y384705D01*
X214100Y386955D02*Y385455D01*
Y386955D02*X214850Y387705D01*
X216350D01*
X217100Y386955D01*
X214100Y386205D02*X217100D01*
Y386955D02*Y386205D01*
X218900Y388455D02*X219650D01*
X218900Y386955D02*X219650D01*
X224150Y390705D02*X227150D01*
X225650D02*Y384705D01*
X228950Y387705D02*Y385455D01*
X229700Y384705D01*
X231200D01*
X231950Y385455D01*
Y387705D02*Y385455D01*
X234500Y384705D02*X236750D01*
X233750Y385455D02*X234500Y384705D01*
X233750Y386955D02*Y385455D01*
Y386955D02*X234500Y387705D01*
X236000D01*
X236750Y386955D01*
X233750Y386205D02*X236750D01*
Y386955D02*Y386205D01*
X241250Y389955D02*X242000Y390705D01*
X244250D01*
X245000Y389955D01*
Y388455D01*
X241250Y384705D02*X245000Y388455D01*
X241250Y384705D02*X245000D01*
X246800Y385455D02*X247550Y384705D01*
X246800Y386655D02*Y385455D01*
Y386655D02*X247850Y387705D01*
X248750D01*
X249800Y386655D01*
Y385455D01*
X249050Y384705D02*X249800Y385455D01*
X247550Y384705D02*X249050D01*
X246800Y388755D02*X247850Y387705D01*
X246800Y389955D02*Y388755D01*
Y389955D02*X247550Y390705D01*
X249050D01*
X249800Y389955D01*
Y388755D01*
X248750Y387705D02*X249800Y388755D01*
X254300Y389205D02*Y384705D01*
Y389205D02*X255350Y390705D01*
X257000D01*
X258050Y389205D01*
Y384705D01*
X254300Y387705D02*X258050D01*
X259850D02*Y385455D01*
X260600Y384705D01*
X262100D01*
X262850Y385455D01*
Y387705D02*Y385455D01*
X266900Y387705D02*X267650Y386955D01*
X265400Y387705D02*X266900D01*
X264650Y386955D02*X265400Y387705D01*
X264650Y386955D02*Y385455D01*
X265400Y384705D01*
X266900D01*
X267650Y385455D01*
X264650Y383205D02*X265400Y382455D01*
X266900D01*
X267650Y383205D01*
Y387705D02*Y383205D01*
X272150Y389955D02*X272900Y390705D01*
X275150D01*
X275900Y389955D01*
Y388455D01*
X272150Y384705D02*X275900Y388455D01*
X272150Y384705D02*X275900D01*
X277700Y385455D02*X278450Y384705D01*
X277700Y389955D02*Y385455D01*
Y389955D02*X278450Y390705D01*
X279950D01*
X280700Y389955D01*
Y385455D01*
X279950Y384705D02*X280700Y385455D01*
X278450Y384705D02*X279950D01*
X277700Y386205D02*X280700Y389205D01*
X282500Y389505D02*X283700Y390705D01*
Y384705D01*
X282500D02*X284750D01*
X286550Y385455D02*X287300Y384705D01*
X286550Y386655D02*Y385455D01*
Y386655D02*X287600Y387705D01*
X288500D01*
X289550Y386655D01*
Y385455D01*
X288800Y384705D02*X289550Y385455D01*
X287300Y384705D02*X288800D01*
X286550Y388755D02*X287600Y387705D01*
X286550Y389955D02*Y388755D01*
Y389955D02*X287300Y390705D01*
X288800D01*
X289550Y389955D01*
Y388755D01*
X288500Y387705D02*X289550Y388755D01*
X294050Y385455D02*X294800Y384705D01*
X294050Y389955D02*Y385455D01*
Y389955D02*X294800Y390705D01*
X296300D01*
X297050Y389955D01*
Y385455D01*
X296300Y384705D02*X297050Y385455D01*
X294800Y384705D02*X296300D01*
X294050Y386205D02*X297050Y389205D01*
X299600Y384705D02*X302600Y390705D01*
X298850D02*X302600D01*
X304400Y388455D02*X305150D01*
X304400Y386955D02*X305150D01*
X306950Y385455D02*X307700Y384705D01*
X306950Y389955D02*Y385455D01*
Y389955D02*X307700Y390705D01*
X309200D01*
X309950Y389955D01*
Y385455D01*
X309200Y384705D02*X309950Y385455D01*
X307700Y384705D02*X309200D01*
X306950Y386205D02*X309950Y389205D01*
X311750Y389955D02*X312500Y390705D01*
X314750D01*
X315500Y389955D01*
Y388455D01*
X311750Y384705D02*X315500Y388455D01*
X311750Y384705D02*X315500D01*
X317300Y388455D02*X318050D01*
X317300Y386955D02*X318050D01*
X319850Y390705D02*X322850D01*
X319850D02*Y387705D01*
X320600Y388455D01*
X322100D01*
X322850Y387705D01*
Y385455D01*
X322100Y384705D02*X322850Y385455D01*
X320600Y384705D02*X322100D01*
X319850Y385455D02*X320600Y384705D01*
X324650Y389955D02*X325400Y390705D01*
X327650D01*
X328400Y389955D01*
Y388455D01*
X324650Y384705D02*X328400Y388455D01*
X324650Y384705D02*X328400D01*
X332900Y389205D02*Y384705D01*
Y389205D02*X333950Y390705D01*
X335600D01*
X336650Y389205D01*
Y384705D01*
X332900Y387705D02*X336650D01*
X338450Y390705D02*Y384705D01*
Y390705D02*X340700Y387705D01*
X342950Y390705D01*
Y384705D01*
X350450Y390705D02*X351200Y389955D01*
X348200Y390705D02*X350450D01*
X347450Y389955D02*X348200Y390705D01*
X347450Y389955D02*Y385455D01*
X348200Y384705D01*
X350450D01*
X351200Y385455D01*
Y386955D02*Y385455D01*
X350450Y387705D02*X351200Y386955D01*
X348950Y387705D02*X350450D01*
X353000Y390705D02*Y384705D01*
Y390705D02*X355250Y387705D01*
X357500Y390705D01*
Y384705D01*
X359300Y390705D02*X362300D01*
X360800D02*Y384705D01*
X366800Y390705D02*Y385455D01*
X367550Y384705D01*
X369050D01*
X369800Y385455D01*
Y390705D02*Y385455D01*
X371600Y390705D02*X374600D01*
X373100D02*Y384705D01*
X377450D02*X379400D01*
X376400Y385755D02*X377450Y384705D01*
X376400Y389655D02*Y385755D01*
Y389655D02*X377450Y390705D01*
X379400D01*
X200000Y404205D02*Y399705D01*
Y404205D02*X201050Y405705D01*
X202700D01*
X203750Y404205D01*
Y399705D01*
X200000Y402705D02*X203750D01*
X205550D02*Y400455D01*
X206300Y399705D01*
X207800D01*
X208550Y400455D01*
Y402705D02*Y400455D01*
X211100Y405705D02*Y400455D01*
X211850Y399705D01*
X210350Y403455D02*X211850D01*
X213350Y405705D02*Y399705D01*
Y401955D02*X214100Y402705D01*
X215600D01*
X216350Y401955D01*
Y399705D01*
X218150Y401955D02*Y400455D01*
Y401955D02*X218900Y402705D01*
X220400D01*
X221150Y401955D01*
Y400455D01*
X220400Y399705D02*X221150Y400455D01*
X218900Y399705D02*X220400D01*
X218150Y400455D02*X218900Y399705D01*
X223700Y401955D02*Y399705D01*
Y401955D02*X224450Y402705D01*
X225950D01*
X222950D02*X223700Y401955D01*
X227750Y403455D02*X228500D01*
X227750Y401955D02*X228500D01*
X200000Y420705D02*X203000D01*
X201500D02*Y414705D01*
G54D29*X204800Y419205D02*Y419055D01*
G54D28*Y416955D02*Y414705D01*
X207050Y420705D02*Y415455D01*
X207800Y414705D01*
X206300Y418455D02*X207800D01*
X209300Y420705D02*Y415455D01*
X210050Y414705D01*
X212300D02*X214550D01*
X211550Y415455D02*X212300Y414705D01*
X211550Y416955D02*Y415455D01*
Y416955D02*X212300Y417705D01*
X213800D01*
X214550Y416955D01*
X211550Y416205D02*X214550D01*
Y416955D02*Y416205D01*
X216350Y418455D02*X217100D01*
X216350Y416955D02*X217100D01*
X221600Y415455D02*X222350Y414705D01*
X221600Y419955D02*X222350Y420705D01*
X221600Y419955D02*Y415455D01*
X224150Y417705D02*Y415455D01*
X224900Y414705D01*
X226400D01*
X227150Y415455D01*
Y417705D02*Y415455D01*
X229700Y416955D02*Y414705D01*
Y416955D02*X230450Y417705D01*
X231200D01*
X231950Y416955D01*
Y414705D01*
X228950Y417705D02*X229700Y416955D01*
X233750Y420705D02*Y414705D01*
Y416955D02*X236000Y414705D01*
X233750Y416955D02*X235250Y418455D01*
X238550Y416955D02*Y414705D01*
Y416955D02*X239300Y417705D01*
X240050D01*
X240800Y416955D01*
Y414705D01*
X237800Y417705D02*X238550Y416955D01*
X242600D02*Y415455D01*
Y416955D02*X243350Y417705D01*
X244850D01*
X245600Y416955D01*
Y415455D01*
X244850Y414705D02*X245600Y415455D01*
X243350Y414705D02*X244850D01*
X242600Y415455D02*X243350Y414705D01*
X247400Y417705D02*Y415455D01*
X248150Y414705D01*
X248900D01*
X249650Y415455D01*
Y417705D02*Y415455D01*
X250400Y414705D01*
X251150D01*
X251900Y415455D01*
Y417705D02*Y415455D01*
X254450Y416955D02*Y414705D01*
Y416955D02*X255200Y417705D01*
X255950D01*
X256700Y416955D01*
Y414705D01*
X253700Y417705D02*X254450Y416955D01*
X258500Y420705D02*X259250Y419955D01*
Y415455D01*
X258500Y414705D02*X259250Y415455D01*
X263750Y417705D02*X266750D01*
X271250Y420705D02*Y414705D01*
Y420705D02*X274250D01*
X271250Y418005D02*X273500D01*
X278300Y417705D02*X279050Y416955D01*
X276800Y417705D02*X278300D01*
X276050Y416955D02*X276800Y417705D01*
X276050Y416955D02*Y415455D01*
X276800Y414705D01*
X279050Y417705D02*Y415455D01*
X279800Y414705D01*
X276800D02*X278300D01*
X279050Y415455D01*
X281600Y420705D02*Y414705D01*
Y415455D02*X282350Y414705D01*
X283850D01*
X284600Y415455D01*
Y416955D02*Y415455D01*
X283850Y417705D02*X284600Y416955D01*
X282350Y417705D02*X283850D01*
X281600Y416955D02*X282350Y417705D01*
X287150Y416955D02*Y414705D01*
Y416955D02*X287900Y417705D01*
X289400D01*
X286400D02*X287150Y416955D01*
G54D29*X291200Y419205D02*Y419055D01*
G54D28*Y416955D02*Y414705D01*
X293450Y417705D02*X295700D01*
X292700Y416955D02*X293450Y417705D01*
X292700Y416955D02*Y415455D01*
X293450Y414705D01*
X295700D01*
X299750Y417705D02*X300500Y416955D01*
X298250Y417705D02*X299750D01*
X297500Y416955D02*X298250Y417705D01*
X297500Y416955D02*Y415455D01*
X298250Y414705D01*
X300500Y417705D02*Y415455D01*
X301250Y414705D01*
X298250D02*X299750D01*
X300500Y415455D01*
X303800Y420705D02*Y415455D01*
X304550Y414705D01*
X303050Y418455D02*X304550D01*
G54D29*X306050Y419205D02*Y419055D01*
G54D28*Y416955D02*Y414705D01*
X307550Y416955D02*Y415455D01*
Y416955D02*X308300Y417705D01*
X309800D01*
X310550Y416955D01*
Y415455D01*
X309800Y414705D02*X310550Y415455D01*
X308300Y414705D02*X309800D01*
X307550Y415455D02*X308300Y414705D01*
X313100Y416955D02*Y414705D01*
Y416955D02*X313850Y417705D01*
X314600D01*
X315350Y416955D01*
Y414705D01*
X312350Y417705D02*X313100Y416955D01*
X320600Y420705D02*Y414705D01*
X322550Y420705D02*X323600Y419655D01*
Y415755D01*
X322550Y414705D02*X323600Y415755D01*
X319850Y414705D02*X322550D01*
X319850Y420705D02*X322550D01*
X326150Y416955D02*Y414705D01*
Y416955D02*X326900Y417705D01*
X328400D01*
X325400D02*X326150Y416955D01*
X332450Y417705D02*X333200Y416955D01*
X330950Y417705D02*X332450D01*
X330200Y416955D02*X330950Y417705D01*
X330200Y416955D02*Y415455D01*
X330950Y414705D01*
X333200Y417705D02*Y415455D01*
X333950Y414705D01*
X330950D02*X332450D01*
X333200Y415455D01*
X335750Y417705D02*Y415455D01*
X336500Y414705D01*
X337250D01*
X338000Y415455D01*
Y417705D02*Y415455D01*
X338750Y414705D01*
X339500D01*
X340250Y415455D01*
Y417705D02*Y415455D01*
G54D29*X342050Y419205D02*Y419055D01*
G54D28*Y416955D02*Y414705D01*
X344300Y416955D02*Y414705D01*
Y416955D02*X345050Y417705D01*
X345800D01*
X346550Y416955D01*
Y414705D01*
X343550Y417705D02*X344300Y416955D01*
X350600Y417705D02*X351350Y416955D01*
X349100Y417705D02*X350600D01*
X348350Y416955D02*X349100Y417705D01*
X348350Y416955D02*Y415455D01*
X349100Y414705D01*
X350600D01*
X351350Y415455D01*
X348350Y413205D02*X349100Y412455D01*
X350600D01*
X351350Y413205D01*
Y417705D02*Y413205D01*
M02*
